<?xml version="1.0" encoding="UTF-8"?>
<svg id="Layer_2" data-name="Layer 2" xmlns="http://www.w3.org/2000/svg" viewBox="0 0 396.34 148.37">
  <defs>
    <style>
      .cls-1 {
        fill: #005cff;
      }

      .cls-1, .cls-2 {
        stroke-width: 0px;
      }

      .cls-3 {
        font-family: Poppins-Bold, Poppins;
        font-size: 37.73px;
        font-weight: 700;
      }

      .cls-4 {
        font-family: Poppins-Regular, Poppins;
        font-size: 26.38px;
      }
    </style>
  </defs>
  <g id="Layer_1-2" data-name="Layer 1">
    <g>
      <text class="cls-3" transform="translate(184.53 50.57)"><tspan x="0" y="0">TAAK</tspan></text>
      <text class="cls-4" transform="translate(186.24 86.02)"><tspan x="0" y="0">Tax Accounting </tspan><tspan x="0" y="31.66">Advisory KPI</tspan></text>
      <rect class="cls-2" x="148.23" width="1.23" height="148.37"/>
    </g>
    <g>
      <g>
        <path class="cls-1" d="m85.99,121.05c-12.6-5.58-24.29-10.76-36.55-16.19v21.38h-13.02v-21.56c-12.27,5.37-23.86,10.44-36.41,15.93,1.61-3.23,3.02-5.62,4.02-8.17,2.65-6.78,7.06-11.36,14.43-13.84,7.46-2.52,14.45-6.33,21.74-9.36,1.4-.58,3.5-.69,4.86-.11,9.75,4.17,19.43,8.51,29.04,12.97,1.46.68,2.85,2.04,3.64,3.43,2.75,4.8,5.22,9.75,8.26,15.52Z"/>
        <path class="cls-1" d="m69.02,88.66c-8.28-3.62-15.65-6.72-22.89-10.09-2.37-1.1-4.26-1.18-6.65-.06-6.5,3.05-13.14,5.83-19.74,8.7-.71.31-1.47.51-3.02,1.04,3.18-6.06,5.89-11.49,8.89-16.76.59-1.03,2.24-1.57,3.49-2.16,13.65-6.34,13.69-6.4,27.29.08,1.94.92,3.76,2.7,4.86,4.52,2.67,4.45,4.87,9.15,7.77,14.71Z"/>
        <path class="cls-1" d="m33.71,55.67c2.86-5.5,5.72-10.99,8.99-17.27,3.29,6.23,6.25,11.85,9.22,17.46-6.02-3.24-11.9-4.02-17.77.76l-.44-.96Z"/>
      </g>
      <g>
        <path class="cls-2" d="m92.82,120.82c-12.6-5.83-24.29-11.24-36.55-16.91v22.33h-13.02v-22.52c-12.27,5.61-23.86,10.9-36.41,16.64,1.61-3.37,3.02-5.87,4.02-8.53,2.65-7.08,7.06-11.86,14.43-14.46,7.46-2.63,14.45-6.61,21.74-9.77,1.4-.61,3.5-.72,4.86-.11,9.75,4.35,19.43,8.89,29.04,13.54,1.46.71,2.85,2.13,3.64,3.58,2.75,5.01,5.22,10.18,8.26,16.21Z"/>
        <path class="cls-2" d="m75.85,86.99c-8.28-3.78-15.65-7.02-22.89-10.53-2.37-1.15-4.26-1.24-6.65-.06-6.5,3.19-13.14,6.09-19.74,9.09-.71.32-1.47.53-3.02,1.09,3.18-6.33,5.89-12,8.89-17.51.59-1.08,2.24-1.64,3.49-2.25,13.65-6.62,13.69-6.69,27.29.09,1.94.97,3.76,2.82,4.86,4.72,2.67,4.64,4.87,9.56,7.77,15.37Z"/>
        <path class="cls-2" d="m40.54,52.54c2.86-5.74,5.72-11.48,8.99-18.03,3.29,6.5,6.25,12.37,9.22,18.24-6.02-3.38-11.9-4.2-17.77.79l-.44-1Z"/>
      </g>
    </g>
  </g>
</svg>