<?xml version="1.0" encoding="utf-8"?>
<!-- Generator: Adobe Illustrator 27.5.0, SVG Export Plug-In . SVG Version: 6.00 Build 0)  -->
<svg version="1.1" xmlns="http://www.w3.org/2000/svg" xmlns:xlink="http://www.w3.org/1999/xlink" x="0px" y="0px"
	 viewBox="0 0 500 500" style="enable-background:new 0 0 500 500;" xml:space="preserve">
<g id="BACKGROUND">
	<g>
		<rect style="fill:#FFFFFF;" width="500" height="500"/>
		<g>
			<g>
				<g>
					<g>
						<path style="fill:none;stroke:#79CCD4;stroke-width:1.1382;stroke-miterlimit:10;" d="M66.979,154.95
							c4.493,0,8.563-1.787,11.56-4.678l-11.56-11.987V154.95z"/>
						<path style="fill:none;stroke:#79CCD4;stroke-width:1.1382;stroke-miterlimit:10;" d="M82.115,134.26
							c0-9.204-7.461-16.665-16.665-16.665c-9.204,0-16.665,7.461-16.665,16.665c0,9.204,7.461,16.665,16.665,16.665V134.26
							l11.56,11.988C80.153,143.216,82.115,138.971,82.115,134.26z"/>
					</g>
					<path style="fill:none;stroke:#79CCD4;stroke-width:1.1382;stroke-miterlimit:10;" d="M450.721,130.162h-18.268
						c-1.357,0-2.457,1.1-2.457,2.457v8.731c0,1.357,1.1,2.457,2.457,2.457h10.533l3.664,6.564v-6.564h4.071
						c1.357,0,2.457-1.1,2.457-2.457v-8.731C453.178,131.262,452.078,130.162,450.721,130.162z"/>
					<path style="fill:none;stroke:#79CCD4;stroke-width:1.1382;stroke-miterlimit:10;" d="M51.925,244.232H30.613
						c-1.583,0-2.867,1.284-2.867,2.867v10.187c0,1.583,1.284,2.867,2.867,2.867h12.289l4.274,7.658v-7.658h4.75
						c1.583,0,2.867-1.283,2.867-2.867v-10.187C54.792,245.516,53.509,244.232,51.925,244.232z"/>
					<circle style="fill:none;stroke:#79CCD4;stroke-width:1.1382;stroke-miterlimit:10;" cx="81.248" cy="258.552" r="4.561"/>
					<path style="fill:none;stroke:#79CCD4;stroke-width:1.1382;stroke-miterlimit:10;" d="M351.848,86.9
						c0,2.519-2.042,4.561-4.561,4.561c-2.519,0-4.56-2.042-4.56-4.561c0-2.519,2.042-4.56,4.56-4.56
						C349.806,82.339,351.848,84.381,351.848,86.9z"/>
					<path style="fill:none;stroke:#79CCD4;stroke-width:1.1382;stroke-miterlimit:10;" d="M200.581,329.166
						c0,2.519-2.042,4.561-4.561,4.561c-2.519,0-4.56-2.042-4.56-4.561c0-2.519,2.042-4.561,4.56-4.561
						C198.539,324.606,200.581,326.647,200.581,329.166z"/>
					<path style="fill:none;stroke:#79CCD4;stroke-width:1.1382;stroke-miterlimit:10;" d="M472.039,308.414
						c0,2.519-2.042,4.561-4.561,4.561c-2.519,0-4.561-2.042-4.561-4.561s2.042-4.56,4.561-4.56
						C469.997,303.854,472.039,305.895,472.039,308.414z"/>
					<g>
						<polygon style="fill:none;stroke:#79CCD4;stroke-width:1.1382;stroke-miterlimit:10;" points="183.067,225.828 
							175.306,214.573 179.992,211.343 183.613,216.595 198.846,199.289 203.117,203.049 						"/>
					</g>
					<polygon style="fill:none;stroke:#79CCD4;stroke-width:1.1382;stroke-miterlimit:10;" points="343.047,292.045 
						337.473,292.045 337.473,286.471 331.585,286.471 331.585,292.045 326.011,292.045 326.011,297.933 331.585,297.933 
						331.585,303.507 337.473,303.507 337.473,297.933 343.047,297.933 					"/>
				</g>
				<g>
					<g>
						<path style="fill:#79CCD4;" d="M150.437,291.044c0,0.786-0.637,1.423-1.423,1.423c-0.786,0-1.423-0.637-1.423-1.423
							s0.637-1.423,1.423-1.423C149.8,289.621,150.437,290.258,150.437,291.044z"/>
						<path style="fill:#79CCD4;" d="M156.128,291.044c0,0.786-0.637,1.423-1.423,1.423c-0.786,0-1.423-0.637-1.423-1.423
							s0.637-1.423,1.423-1.423C155.491,289.621,156.128,290.258,156.128,291.044z"/>
						<path style="fill:#79CCD4;" d="M161.819,291.044c0,0.786-0.637,1.423-1.423,1.423c-0.786,0-1.423-0.637-1.423-1.423
							s0.637-1.423,1.423-1.423C161.182,289.621,161.819,290.258,161.819,291.044z"/>
						<path style="fill:#79CCD4;" d="M167.51,291.044c0,0.786-0.637,1.423-1.423,1.423c-0.786,0-1.423-0.637-1.423-1.423
							s0.637-1.423,1.423-1.423C166.873,289.621,167.51,290.258,167.51,291.044z"/>
						<path style="fill:#79CCD4;" d="M173.201,291.044c0,0.786-0.637,1.423-1.423,1.423c-0.786,0-1.423-0.637-1.423-1.423
							s0.637-1.423,1.423-1.423C172.563,289.621,173.201,290.258,173.201,291.044z"/>
						<path style="fill:#79CCD4;" d="M178.891,291.044c0,0.786-0.637,1.423-1.423,1.423c-0.786,0-1.423-0.637-1.423-1.423
							s0.637-1.423,1.423-1.423C178.254,289.621,178.891,290.258,178.891,291.044z"/>
						<path style="fill:#79CCD4;" d="M184.582,291.044c0,0.786-0.637,1.423-1.423,1.423c-0.786,0-1.423-0.637-1.423-1.423
							s0.637-1.423,1.423-1.423C183.945,289.621,184.582,290.258,184.582,291.044z"/>
						<path style="fill:#79CCD4;" d="M190.273,291.044c0,0.786-0.637,1.423-1.423,1.423c-0.786,0-1.423-0.637-1.423-1.423
							s0.637-1.423,1.423-1.423C189.636,289.621,190.273,290.258,190.273,291.044z"/>
					</g>
					<g>
						<circle style="fill:#79CCD4;" cx="267.488" cy="89.875" r="1.423"/>
						<circle style="fill:#79CCD4;" cx="273.179" cy="89.875" r="1.423"/>
						<circle style="fill:#79CCD4;" cx="278.87" cy="89.875" r="1.423"/>
						<circle style="fill:#79CCD4;" cx="284.561" cy="89.875" r="1.423"/>
						<circle style="fill:#79CCD4;" cx="290.251" cy="89.875" r="1.423"/>
						<path style="fill:#79CCD4;" d="M297.365,89.875c0,0.786-0.637,1.423-1.423,1.423c-0.786,0-1.423-0.637-1.423-1.423
							c0-0.786,0.637-1.423,1.423-1.423C296.728,88.452,297.365,89.089,297.365,89.875z"/>
						<path style="fill:#79CCD4;" d="M303.056,89.875c0,0.786-0.637,1.423-1.423,1.423c-0.786,0-1.423-0.637-1.423-1.423
							c0-0.786,0.637-1.423,1.423-1.423C302.419,88.452,303.056,89.089,303.056,89.875z"/>
						<path style="fill:#79CCD4;" d="M308.747,89.875c0,0.786-0.637,1.423-1.423,1.423c-0.786,0-1.423-0.637-1.423-1.423
							c0-0.786,0.637-1.423,1.423-1.423C308.11,88.452,308.747,89.089,308.747,89.875z"/>
					</g>
					<g>
						<path style="fill:#79CCD4;" d="M266.065,281.786c0,0.786-0.637,1.423-1.423,1.423c-0.786,0-1.423-0.637-1.423-1.423
							s0.637-1.423,1.423-1.423C265.428,280.363,266.065,281,266.065,281.786z"/>
						<path style="fill:#79CCD4;" d="M271.756,281.786c0,0.786-0.637,1.423-1.423,1.423c-0.786,0-1.423-0.637-1.423-1.423
							s0.637-1.423,1.423-1.423C271.119,280.363,271.756,281,271.756,281.786z"/>
						<path style="fill:#79CCD4;" d="M277.447,281.786c0,0.786-0.637,1.423-1.423,1.423c-0.786,0-1.423-0.637-1.423-1.423
							s0.637-1.423,1.423-1.423C276.81,280.363,277.447,281,277.447,281.786z"/>
						<path style="fill:#79CCD4;" d="M283.138,281.786c0,0.786-0.637,1.423-1.423,1.423c-0.786,0-1.423-0.637-1.423-1.423
							s0.637-1.423,1.423-1.423C282.501,280.363,283.138,281,283.138,281.786z"/>
						<path style="fill:#79CCD4;" d="M288.829,281.786c0,0.786-0.637,1.423-1.423,1.423c-0.786,0-1.423-0.637-1.423-1.423
							s0.637-1.423,1.423-1.423C288.192,280.363,288.829,281,288.829,281.786z"/>
						<path style="fill:#79CCD4;" d="M294.52,281.786c0,0.786-0.637,1.423-1.423,1.423c-0.786,0-1.423-0.637-1.423-1.423
							s0.637-1.423,1.423-1.423C293.883,280.363,294.52,281,294.52,281.786z"/>
						<path style="fill:#79CCD4;" d="M300.21,281.786c0,0.786-0.637,1.423-1.423,1.423c-0.786,0-1.423-0.637-1.423-1.423
							s0.637-1.423,1.423-1.423C299.574,280.363,300.21,281,300.21,281.786z"/>
						<path style="fill:#79CCD4;" d="M305.901,281.786c0,0.786-0.637,1.423-1.423,1.423c-0.786,0-1.423-0.637-1.423-1.423
							s0.637-1.423,1.423-1.423C305.264,280.363,305.901,281,305.901,281.786z"/>
					</g>
				</g>
			</g>
			<g>
				<path style="fill:#D8F5F4;" d="M292.109,248.432c-1.649,1.649-2.664,3.901-2.664,6.406c0,5.043,4.06,9.102,9.07,9.102h40.275
					c23.373,0,42.337,18.965,42.337,42.369c0,11.702-4.757,22.294-12.4,29.969c-7.675,7.675-18.235,12.4-29.937,12.4H137.858
					c-23.405,0-42.369-18.964-42.369-42.368c0-11.702,4.725-22.294,12.4-29.969c7.675-7.674,18.267-12.4,29.969-12.4h48.774
					c2.505,0,4.789-1.015,6.438-2.664c1.649-1.649,2.664-3.901,2.664-6.438c0-5.01-4.091-9.07-9.102-9.07h-38.721
					c-17.506,0-31.681-14.207-31.681-31.713c0-8.753,3.552-16.681,9.292-22.389c5.709-5.74,13.637-9.292,22.39-9.292h38.721
					c2.505,0,4.789-1.015,6.438-2.664c1.649-1.649,2.664-3.932,2.664-6.438c0-5.011-4.091-9.07-9.102-9.07h-8.975
					c-15.983,0-28.954-12.971-28.954-28.954c0-7.992,3.235-15.222,8.467-20.455c5.264-5.233,12.495-8.467,20.486-8.467h127.676
					c15.952,0,28.922,12.939,28.922,28.922c0,7.992-3.235,15.222-8.467,20.455c-5.233,5.264-12.463,8.499-20.455,8.499h-34.948
					c-2.505,0-4.757,1.015-6.406,2.664c-1.649,1.649-2.664,3.901-2.664,6.406c0,5.011,4.059,9.102,9.07,9.102h94.093
					c17.506,0,31.681,14.176,31.681,31.681c0,8.753-3.552,16.681-9.26,22.421c-5.74,5.74-13.668,9.292-22.421,9.292h-65.963
					C296.01,245.768,293.727,246.782,292.109,248.432z"/>
				<path style="fill:#D8F5F4;" d="M366.148,137.082h-4.293c-7.059,0-12.782-5.723-12.782-12.782v0
					c0-7.059,5.723-12.782,12.782-12.782h4.293c7.059,0,12.782,5.723,12.782,12.782v0
					C378.93,131.36,373.207,137.082,366.148,137.082z"/>
				<path style="fill:#D8F5F4;" d="M407.772,308.414h-2.917c-4.797,0-8.685-3.888-8.685-8.685l0,0c0-4.797,3.888-8.685,8.685-8.685
					h2.917c4.797,0,8.685,3.888,8.685,8.685l0,0C416.457,304.526,412.568,308.414,407.772,308.414z"/>
				<path style="fill:#D8F5F4;" d="M71.764,317.099h-2.917c-4.797,0-8.685-3.888-8.685-8.685l0,0c0-4.797,3.889-8.685,8.685-8.685
					h2.917c4.797,0,8.685,3.888,8.685,8.685l0,0C80.449,313.211,76.56,317.099,71.764,317.099z"/>
				<path style="fill:#D8F5F4;" d="M90.44,220.892h-4.294c-7.059,0-12.782-5.723-12.782-12.782l0,0
					c0-7.059,5.723-12.782,12.782-12.782h4.294c7.059,0,12.782,5.723,12.782,12.782l0,0
					C103.222,215.169,97.499,220.892,90.44,220.892z"/>
			</g>
		</g>
	</g>
</g>
<g id="OBJECTS">
	<path style="fill:#CDD7E6;" d="M300.863,431.154c0,2.734-28.006,4.951-62.554,4.951c-34.548,0-62.554-2.217-62.554-4.951
		c0-2.734,28.006-4.951,62.554-4.951C272.857,426.203,300.863,428.42,300.863,431.154z"/>
	<g>
		<g>
			<g>
				<rect x="382.648" y="129.913" style="fill:#DBD0F6;" width="32.937" height="43.318"/>
				<polygon style="fill:#E9E0FF;" points="382.648,173.231 415.585,129.913 382.648,129.913 				"/>
				<g>
					<rect x="388.74" y="135.402" style="fill:#9A84D8;" width="20.753" height="1.741"/>
					<rect x="388.74" y="141.963" style="fill:#9A84D8;" width="20.753" height="1.741"/>
					<rect x="388.74" y="148.523" style="fill:#9A84D8;" width="20.753" height="1.741"/>
					<rect x="388.74" y="155.084" style="fill:#9A84D8;" width="20.753" height="1.741"/>
				</g>
				
					<line style="fill:none;stroke:#433A70;stroke-width:0.5356;stroke-miterlimit:10;" x1="388.74" y1="169.444" x2="409.493" y2="169.444"/>
			</g>
			<g>
				<g>
					<g>
						<path style="fill:#007CA9;" d="M320.068,193.6v-7.671l-4.939-0.996v0c-0.133-0.362-0.283-0.715-0.444-1.062l0.007,0.007
							l2.788-4.196l-5.424-5.424l-4.197,2.788l0.007,0.008c-0.347-0.161-0.7-0.311-1.061-0.444h0l-0.996-4.939h-7.671l-0.996,4.939
							h0c-0.362,0.133-0.715,0.283-1.062,0.444l0.008-0.008l-4.197-2.788l-5.424,5.424l2.788,4.196l0.008-0.007
							c-0.161,0.347-0.311,0.7-0.444,1.062v0l-4.939,0.996v7.671l4.939,0.996v0c0.133,0.362,0.283,0.715,0.444,1.062l-0.008-0.008
							l-2.788,4.197l5.424,5.424l4.197-2.788l-0.008-0.008c0.347,0.161,0.7,0.311,1.062,0.444h0l0.996,4.939h7.671l0.996-4.939h0
							c0.362-0.133,0.715-0.283,1.061-0.444l-0.007,0.008l4.197,2.788l5.424-5.424l-2.788-4.197l-0.007,0.008
							c0.161-0.347,0.311-0.7,0.444-1.062v0L320.068,193.6z M301.975,196.934c-3.96,0-7.169-3.21-7.169-7.169
							c0-3.959,3.21-7.169,7.169-7.169c3.96,0,7.169,3.21,7.169,7.169C309.144,193.724,305.935,196.934,301.975,196.934z"/>
					</g>
					<g>
						<path style="opacity:0.3;fill:#FFFFFF;" d="M306.605,203.921l-0.795,3.937h-7.67l-0.992-4.936
							c-0.362-0.132-0.71-0.283-1.058-0.44l-0.546,0.361l-0.861-1.788l-6.671-13.946l-0.874-1.834l1.682-0.342
							c0.138-0.361,0.283-0.71,0.44-1.051l-2.793-4.2l5.429-5.422l0.749,0.499l1.663,3.47l1.939,4.055l1.005,2.09
							c-1.498,1.314-2.445,3.24-2.445,5.389c0,3.963,3.207,7.17,7.17,7.17c0.421,0,0.828-0.033,1.229-0.112l1.005,2.096l1.156,2.425
							L306.605,203.921z"/>
						<path style="opacity:0.3;fill:#FFFFFF;" d="M317.482,199.846l-5.409,5.415l-1.643-3.437l-2.34-4.889l-1.019-2.123
							c1.288-1.301,2.077-3.082,2.077-5.047c0-3.956-3.214-7.17-7.17-7.17c-0.243,0-0.486,0.013-0.73,0.039c0,0,0,0-0.007,0
							l-1.012-2.129l-1.308-2.727l-1.413-2.957l0.631-3.148h7.67l0.999,4.942c0.361,0.132,0.71,0.283,1.052,0.434l0.953-0.631
							l0.861,1.794l3.831,8.011l0.21,0.44l2.708,5.659l0.88,1.84l-2.175,0.434c-0.132,0.362-0.283,0.71-0.434,1.058L317.482,199.846
							z"/>
					</g>
				</g>
				
					<ellipse transform="matrix(0.9249 -0.3802 0.3802 0.9249 -49.469 129.0467)" style="fill:none;stroke:#FFFFFF;stroke-width:0.3191;stroke-miterlimit:10;" cx="301.975" cy="189.765" rx="10.862" ry="10.862"/>
			</g>
			<g>
				<g>
					<g>
						<path style="fill:#00A968;" d="M440.634,202.407v-3.561l-2.293-0.462v0c-0.062-0.168-0.131-0.332-0.206-0.493l0.004,0.003
							l1.294-1.948l-2.518-2.518l-1.948,1.294l0.003,0.003c-0.161-0.075-0.325-0.144-0.493-0.206h0l-0.462-2.293h-3.561
							l-0.462,2.293h0c-0.168,0.062-0.332,0.131-0.493,0.206l0.003-0.003l-1.948-1.294l-2.518,2.518l1.294,1.948l0.003-0.003
							c-0.075,0.161-0.144,0.325-0.206,0.493v0l-2.293,0.462v3.561l2.293,0.462v0c0.062,0.168,0.131,0.332,0.206,0.493l-0.003-0.003
							l-1.294,1.948l2.518,2.518l1.948-1.294l-0.003-0.003c0.161,0.075,0.325,0.144,0.493,0.206h0l0.462,2.293h3.561l0.462-2.293h0
							c0.168-0.062,0.332-0.131,0.493-0.206l-0.003,0.003l1.948,1.294l2.518-2.518l-1.294-1.948l-0.004,0.003
							c0.075-0.161,0.144-0.325,0.206-0.493v0L440.634,202.407z M432.235,203.955c-1.838,0-3.328-1.49-3.328-3.328
							c0-1.838,1.49-3.328,3.328-3.328s3.328,1.49,3.328,3.328C435.564,202.465,434.073,203.955,432.235,203.955z"/>
					</g>
					<g>
						<path style="opacity:0.3;fill:#FFFFFF;" d="M434.385,207.199l-0.369,1.827h-3.56l-0.461-2.291
							c-0.168-0.061-0.329-0.131-0.491-0.204l-0.253,0.168l-0.4-0.83l-3.097-6.474l-0.406-0.851l0.781-0.159
							c0.064-0.168,0.131-0.329,0.204-0.488l-1.297-1.949l2.52-2.517l0.348,0.232l0.772,1.611l0.9,1.882l0.467,0.97
							c-0.695,0.61-1.135,1.504-1.135,2.502c0,1.84,1.489,3.328,3.328,3.328c0.195,0,0.385-0.015,0.571-0.052l0.467,0.973
							l0.537,1.126L434.385,207.199z"/>
						<path style="opacity:0.3;fill:#FFFFFF;" d="M439.434,205.307l-2.511,2.514l-0.763-1.596l-1.086-2.27l-0.473-0.986
							c0.598-0.604,0.964-1.431,0.964-2.343c0-1.837-1.492-3.329-3.329-3.329c-0.113,0-0.226,0.006-0.339,0.018c0,0,0,0-0.003,0
							l-0.47-0.988l-0.607-1.266l-0.656-1.373l0.293-1.461h3.56l0.464,2.294c0.168,0.061,0.329,0.131,0.488,0.201l0.442-0.293
							l0.4,0.833l1.779,3.719l0.098,0.204l1.257,2.627l0.409,0.854l-1.01,0.201c-0.061,0.168-0.131,0.329-0.202,0.491
							L439.434,205.307z"/>
					</g>
				</g>
				<path style="fill:none;stroke:#FFFFFF;stroke-width:0.1481;stroke-miterlimit:10;" d="M437.278,200.627
					c0,2.785-2.258,5.042-5.042,5.042c-2.785,0-5.042-2.257-5.042-5.042c0-2.785,2.258-5.043,5.042-5.043
					C435.02,195.584,437.278,197.842,437.278,200.627z"/>
			</g>
		</g>
		<g>
			<g>
				<g>
					<g>
						
							<rect x="110.934" y="135.6" transform="matrix(0.9918 0.1278 -0.1278 0.9918 19.5637 -29.3233)" style="fill:#6B7288;" width="254.751" height="4.411"/>
						
							<rect x="110.793" y="137.796" transform="matrix(0.9918 0.1278 -0.1278 0.9918 19.7023 -29.2963)" style="fill:#9D9CAD;" width="254.751" height="2.205"/>
					</g>
					<g>
						<g>
							<polygon style="fill:#6B7288;" points="253.757,422.112 222.861,422.112 233.822,85.366 242.796,85.366 							"/>
							<polygon style="fill:#9D9CAD;" points="239.717,85.366 237.341,85.366 233.58,422.112 247.636,422.112 							"/>
							<path style="fill:#202D3B;" d="M243.419,99.394l-0.456-10.258c-1.475,0.449-3.029,0.717-4.655,0.717
								c-1.626,0-3.18-0.268-4.655-0.717l-0.456,10.258c1.577,0.648,3.299,1.018,5.11,1.018
								C240.12,100.411,241.842,100.042,243.419,99.394z"/>
							<g>
								<path style="fill:#475588;" d="M251.771,82.462c0,7.435-6.027,13.462-13.462,13.462c-7.435,0-13.462-6.027-13.462-13.462
									c0-7.435,6.027-13.462,13.462-13.462C245.744,69,251.771,75.027,251.771,82.462z"/>
								<path style="fill:#314488;" d="M238.309,85.366c-5.295,0-9.951-2.571-12.917-6.491c-0.319,1.149-0.545,2.337-0.545,3.587
									c0,7.435,6.027,13.462,13.462,13.462c7.435,0,13.462-6.027,13.462-13.462c0-1.251-0.226-2.438-0.545-3.587
									C248.26,82.795,243.603,85.366,238.309,85.366z"/>
								<path style="fill:#716EAD;" d="M237.714,72.316c1.26,1.432,0.701,3.983-1.249,5.698c-1.95,1.715-4.551,1.946-5.811,0.514
									c-1.26-1.431-0.7-3.983,1.249-5.698C233.853,71.115,236.454,70.885,237.714,72.316z"/>
							</g>
						</g>
						<g>
							<path style="fill:#475588;" d="M271.04,413.929h-65.463c-9.038,0-16.366,7.327-16.366,16.366l0,0h98.194l0,0
								C287.406,421.256,280.079,413.929,271.04,413.929z"/>
							<path style="fill:#314488;" d="M189.212,430.294h98.194c0-2.996-0.864-5.767-2.27-8.183h-93.654
								C190.076,424.527,189.212,427.298,189.212,430.294z"/>
						</g>
					</g>
				</g>
				<g>
					<g>
						<ellipse style="fill:#C7CAD6;" cx="111.978" cy="216.722" rx="58.475" ry="2.9"/>
						<g>
							<g>
								
									<linearGradient id="SVGID_1_" gradientUnits="userSpaceOnUse" x1="160.409" y1="451.2879" x2="160.409" y2="509.425" gradientTransform="matrix(0.9654 -0.2608 0.2608 0.9654 -165.4988 -226.6302)">
									<stop  offset="0" style="stop-color:#FCC30B"/>
									<stop  offset="0.9997" style="stop-color:#FC860B"/>
								</linearGradient>
								<circle style="fill:url(#SVGID_1_);" cx="111.983" cy="185.447" r="27.479"/>
								<g>
									<path style="fill:#FB7521;" d="M108.849,208.68c-9.064-1.235-16.966-7.747-19.498-17.118
										c-3.372-12.48,4.037-25.376,16.517-28.748c12.48-3.375,25.376,4.037,28.748,16.517l0,0
										c3.372,12.479-4.037,25.376-16.517,28.748C114.99,208.92,111.856,209.09,108.849,208.68z M115.035,162.82
										c-2.929-0.399-5.981-0.233-9.009,0.585c-12.153,3.285-19.37,15.845-16.086,27.999c3.286,12.154,15.847,19.37,27.999,16.086
										c12.153-3.285,19.37-15.845,16.086-27.999C131.559,170.364,123.861,164.022,115.035,162.82z"/>
								</g>
								
									<linearGradient id="SVGID_00000039115163299302575500000017677035387872057516_" gradientUnits="userSpaceOnUse" x1="160.409" y1="457.3201" x2="160.409" y2="496.8938" gradientTransform="matrix(0.9654 -0.2608 0.2608 0.9654 -165.4988 -226.6302)">
									<stop  offset="2.890000e-04" style="stop-color:#FBE43B"/>
									<stop  offset="0.422" style="stop-color:#FBD529"/>
									<stop  offset="1" style="stop-color:#FCBC0B"/>
								</linearGradient>
								<path style="fill:url(#SVGID_00000039115163299302575500000017677035387872057516_);" d="M130.04,180.567
									c2.695,9.973-3.205,20.242-13.178,22.937c-9.973,2.695-20.242-3.205-22.936-13.178c-2.695-9.973,3.205-20.242,13.178-22.936
									C117.076,164.695,127.345,170.594,130.04,180.567z"/>
								<g>
									<path style="fill:#FB7D30;" d="M116.036,194.584l0.473,1.697l-2.631,0.724l-0.495-1.777
										c-2.491,0.338-4.952-0.087-7.104-1.264l1.565-3.766c2.107,1.015,4.244,1.355,6.368,0.77
										c1.618-0.445,2.257-1.376,1.98-2.372c-0.308-1.105-1.185-1.124-3.893-1.076c-3.965,0.134-7.022-0.184-8.058-3.902
										c-0.894-3.205,0.658-6.039,3.858-7.355l-0.473-1.697l2.631-0.724l0.473,1.697c2.292-0.37,4.354-0.009,6.247,0.919
										l-1.285,3.893c-1.954-0.855-3.886-1.048-5.504-0.603c-1.39,0.383-1.979,1.299-1.724,2.215
										c0.315,1.131,1.255,1.279,3.999,1.162c4.143-0.183,6.976,0.313,7.945,3.788
										C121.367,190.362,119.713,193.224,116.036,194.584z"/>
								</g>
								<g>
									<path style="opacity:0.3;fill:#FFFFFF;" d="M108.288,158.214l-1.286,54.264c-4.316-0.803-8.367-2.624-11.816-5.285
										l1.051-44.278c2.537-1.776,5.421-3.147,8.58-4C105.975,158.603,107.129,158.367,108.288,158.214z"/>
									<path style="opacity:0.3;fill:#FFFFFF;" d="M128.779,163.699l-1.057,44.288c-2.532,1.766-5.407,3.135-8.566,3.988
										c-1.158,0.313-2.319,0.551-3.478,0.703l1.286-54.264C121.277,159.209,125.33,161.039,128.779,163.699z"/>
								</g>
							</g>
							<g>
								
									<rect x="55.9" y="180.627" transform="matrix(0.9099 -0.4147 0.4147 0.9099 -81.3434 48.9935)" style="fill:#007538;" width="32.478" height="62.336"/>
								<g>
									<path style="fill:#00AB51;" d="M92.327,226.508l-18.049-39.6c-2.732,1.245-5.957,0.04-7.202-2.692l-12.431,5.666
										c1.245,2.732,0.04,5.957-2.693,7.202l18.049,39.6c2.732-1.246,5.957-0.04,7.202,2.692l12.431-5.666
										C88.389,230.978,89.595,227.753,92.327,226.508z"/>
								</g>
								<path style="fill:#007538;" d="M76.43,209.84c2.558,5.613,2.711,11.039,0.341,12.119c-2.37,1.08-6.365-2.594-8.924-8.207
									c-2.558-5.613-2.711-11.039-0.341-12.119C69.877,200.552,73.872,204.227,76.43,209.84z"/>
							</g>
							<g>
								
									<rect x="140.933" y="177.155" transform="matrix(0.9208 0.3901 -0.3901 0.9208 93.0807 -44.6243)" style="fill:#007538;" width="30.946" height="59.396"/>
								<g>
									<path style="fill:#00AB51;" d="M159.081,230.504l16.176-38.182c-2.635-1.116-3.866-4.157-2.749-6.791l-11.986-5.078
										c-1.116,2.634-4.156,3.865-6.791,2.749l-16.176,38.182c2.635,1.116,3.866,4.157,2.749,6.791l11.986,5.078
										C153.406,230.619,156.447,229.388,159.081,230.504z"/>
								</g>
								<path style="fill:#007538;" d="M160.543,208.606c-2.293,5.412-6.004,9.014-8.289,8.046
									c-2.285-0.968-2.279-6.14,0.014-11.552c2.293-5.412,6.004-9.014,8.289-8.046
									C162.842,198.022,162.836,203.194,160.543,208.606z"/>
							</g>
							<g>
								
									<linearGradient id="SVGID_00000083774443992494362710000014096548404575997837_" gradientUnits="userSpaceOnUse" x1="202.5558" y1="479.7135" x2="202.5558" y2="537.8558" gradientTransform="matrix(0.6786 -0.7344 0.7344 0.6786 -363.5143 15.6639)">
									<stop  offset="0" style="stop-color:#FCC30B"/>
									<stop  offset="0.9997" style="stop-color:#FC860B"/>
								</linearGradient>
								
									<circle style="fill:url(#SVGID_00000083774443992494362710000014096548404575997837_);" cx="140.117" cy="205.262" r="27.479"/>
								<g>
									<path style="fill:#FB7521;" d="M149.824,226.602c-8.332,3.776-18.488,2.466-25.617-4.121
										c-9.494-8.773-10.082-23.635-1.309-33.129c8.772-9.497,23.635-10.082,33.129-1.309l0,0
										c9.494,8.773,10.082,23.635,1.309,33.129C155.151,223.537,152.588,225.349,149.824,226.602z M130.664,184.479
										c-2.692,1.22-5.188,2.984-7.317,5.288c-8.543,9.247-7.971,23.722,1.275,32.266c9.248,8.543,23.724,7.97,32.266-1.275
										c8.543-9.247,7.971-23.722-1.275-32.266C148.668,182.077,138.777,180.801,130.664,184.479z"/>
								</g>
								
									<linearGradient id="SVGID_00000002361393388821487030000003258334183146847153_" gradientUnits="userSpaceOnUse" x1="202.5558" y1="485.7462" x2="202.5558" y2="525.3234" gradientTransform="matrix(0.6786 -0.7344 0.7344 0.6786 -363.5143 15.6639)">
									<stop  offset="2.890000e-04" style="stop-color:#FBE43B"/>
									<stop  offset="0.422" style="stop-color:#FBD529"/>
									<stop  offset="1" style="stop-color:#FCBC0B"/>
								</linearGradient>
								<path style="fill:url(#SVGID_00000002361393388821487030000003258334183146847153_);" d="M152.811,191.523
									c7.587,7.01,8.055,18.844,1.045,26.432c-7.01,7.587-18.844,8.055-26.432,1.044c-7.587-7.01-8.055-18.844-1.045-26.432
									C133.389,184.98,145.223,184.513,152.811,191.523z"/>
								<g>
									<path style="fill:#FB7D30;" d="M148.41,210.842l1.303,1.185l-1.842,2.013l-1.365-1.241
										c-1.929,1.611-4.239,2.561-6.688,2.709l-0.679-4.021c2.324-0.261,4.315-1.11,5.802-2.736
										c1.133-1.238,1.179-2.366,0.414-3.062c-0.848-0.772-1.601-0.322-3.869,1.161c-3.286,2.223-6.044,3.58-8.899,0.983
										c-2.462-2.239-2.656-5.464-0.647-8.281l-1.303-1.185l1.842-2.013l1.303,1.185c1.744-1.533,3.682-2.324,5.778-2.545
										l0.983,3.98c-2.109,0.316-3.848,1.18-4.982,2.418c-0.973,1.064-0.984,2.153-0.281,2.793
										c0.869,0.79,1.743,0.415,4.004-1.144c3.41-2.359,6.073-3.447,8.743-1.019C150.678,204.431,150.8,207.734,148.41,210.842z"
										/>
								</g>
								<g>
									<path style="opacity:0.3;fill:#FFFFFF;" d="M122.5,184.169l27.78,46.631c-4.082,1.617-8.481,2.229-12.816,1.812
										l-22.666-38.051c1.204-2.854,2.916-5.549,5.137-7.952C120.749,185.728,121.6,184.915,122.5,184.169z"/>
									<path style="opacity:0.3;fill:#FFFFFF;" d="M142.768,177.911l22.666,38.062c-1.204,2.842-2.911,5.531-5.131,7.934
										c-0.814,0.881-1.671,1.7-2.571,2.446l-27.78-46.631C134.028,178.101,138.433,177.494,142.768,177.911z"/>
								</g>
							</g>
							<g>
								
									<linearGradient id="SVGID_00000080903207038184406100000013306006060160125625_" gradientUnits="userSpaceOnUse" x1="142.8348" y1="493.3698" x2="142.8348" y2="551.5051" gradientTransform="matrix(0.9995 -0.0328 0.0328 0.9995 -57.0922 -290.53)">
									<stop  offset="0" style="stop-color:#FCC30B"/>
									<stop  offset="0.9997" style="stop-color:#FC860B"/>
								</linearGradient>
								
									<circle style="fill:url(#SVGID_00000080903207038184406100000013306006060160125625_);" cx="102.473" cy="216.79" r="27.479"/>
								<g>
									<path style="fill:#FB7521;" d="M94.101,238.688c-8.54-3.279-14.741-11.427-15.059-21.129
										c-0.424-12.92,9.742-23.777,22.662-24.201c12.921-0.427,23.777,9.742,24.201,22.662l0,0
										c0.424,12.92-9.742,23.777-22.662,24.201C100.024,240.328,96.934,239.776,94.101,238.688z M110.627,195.463
										c-2.76-1.059-5.769-1.597-8.904-1.494c-12.582,0.414-22.484,10.988-22.071,23.57c0.415,12.583,10.99,22.485,23.57,22.071
										c12.582-0.414,22.484-10.987,22.072-23.57C124.983,206.592,118.943,198.656,110.627,195.463z"/>
								</g>
								
									<linearGradient id="SVGID_00000029006390567737208400000015151442132000456330_" gradientUnits="userSpaceOnUse" x1="142.8347" y1="499.4017" x2="142.8347" y2="538.9742" gradientTransform="matrix(0.9995 -0.0328 0.0328 0.9995 -57.0922 -290.53)">
									<stop  offset="2.890000e-04" style="stop-color:#FBE43B"/>
									<stop  offset="0.422" style="stop-color:#FBD529"/>
									<stop  offset="1" style="stop-color:#FCBC0B"/>
								</linearGradient>
								<path style="fill:url(#SVGID_00000029006390567737208400000015151442132000456330_);" d="M121.168,216.176
									c0.339,10.325-7.756,18.969-18.081,19.309c-10.325,0.339-18.969-7.756-19.308-18.081
									c-0.339-10.325,7.756-18.969,18.081-19.309C112.184,197.756,120.829,205.851,121.168,216.176z"/>
								<g>
									<path style="fill:#FB7D30;" d="M104.326,226.612l0.072,1.76l-2.727,0.102l-0.075-1.844c-2.502-0.242-4.8-1.219-6.626-2.858
										l2.385-3.307c1.818,1.471,3.821,2.291,6.022,2.208c1.677-0.063,2.512-0.822,2.47-1.855
										c-0.047-1.146-0.895-1.366-3.544-1.939c-3.89-0.777-6.793-1.788-6.95-5.644c-0.135-3.325,2.024-5.728,5.44-6.276
										l-0.072-1.76l2.727-0.102l0.072,1.76c2.316,0.165,4.24,0.988,5.87,2.326l-2.142,3.495c-1.706-1.279-3.542-1.91-5.22-1.848
										c-1.441,0.054-2.224,0.812-2.185,1.762c0.048,1.173,0.929,1.533,3.626,2.047c4.075,0.77,6.719,1.902,6.866,5.507
										C110.482,223.724,108.217,226.131,104.326,226.612z"/>
								</g>
								<g>
									<path style="opacity:0.3;fill:#FFFFFF;" d="M105.114,189.435l-13.681,52.527c-4.017-1.77-7.543-4.471-10.291-7.851
										l11.165-42.859c2.877-1.148,5.998-1.822,9.268-1.929C102.774,189.283,103.951,189.318,105.114,189.435z"/>
									<path style="opacity:0.3;fill:#FFFFFF;" d="M123.804,199.467l-11.173,42.868c-2.869,1.139-5.982,1.813-9.252,1.92
										c-1.199,0.039-2.384,0.005-3.547-0.112l13.681-52.527C117.53,193.379,121.056,196.088,123.804,199.467z"/>
								</g>
							</g>
						</g>
						<polyline style="fill:none;stroke:#202D3B;stroke-width:1.4498;stroke-miterlimit:10;" points="54.691,218.051 
							111.978,121.528 169.262,218.051 						"/>
						<g>
							<path style="fill:#475588;" d="M170.444,216.79c-0.479,2.189-11.888,52.845-58.47,52.845
								c-46.567,0-57.977-50.656-58.456-52.845c0.812,1.58,26.676,2.827,58.456,2.827
								C143.768,219.617,169.632,218.37,170.444,216.79z"/>
							<path style="fill:#202D3B;" d="M111.971,254.529c-22.586,0-39.375-8.346-51.735-19.488
								c7.649,15.291,22.988,34.594,51.738,34.594c28.765,0,44.107-19.311,51.757-34.603
								C151.366,246.178,134.569,254.529,111.971,254.529z"/>
						</g>
					</g>
					<g>
						<g>
							<path style="fill:#C7CAD6;" d="M423.115,251.306c0,1.602-26.18,2.9-58.475,2.9c-32.295,0-58.475-1.298-58.475-2.9
								c0-1.601,26.18-2.9,58.475-2.9C396.935,248.407,423.115,249.705,423.115,251.306z"/>
							<polyline style="fill:none;stroke:#202D3B;stroke-width:1.4498;stroke-miterlimit:10;" points="307.353,252.635 
								364.64,156.112 421.925,252.635 							"/>
						</g>
						<g>
							<g>
								<g>
									
										<ellipse transform="matrix(0.7071 -0.7071 0.7071 0.7071 -53.8726 325.6464)" style="fill:#7CD9E5;" cx="366.154" cy="227.853" rx="50.67" ry="50.67"/>
									<g>
										<path style="fill:#734FA0;" d="M378.006,178.576c-0.296,0.514-1.504,0.486-1.97,0.884
											c-0.418,0.357-0.392,0.787-0.939,1.077c-0.598,0.318-1.26,0.029-1.793,0.643c-0.44,0.508-0.016,0.749-0.778,1.07
											c-0.653,0.273-0.852-0.286-1.199-0.302c-0.636-0.029-0.919,0.132-1.478-0.019c-0.563-0.151-0.778-0.537-1.379-0.521
											c0.273,1.132,1.729,1.103,0.63,2.343c-0.337,0.376-0.781,0.35-0.971,0.855c-0.164,0.434,0.292,0.906,0.103,1.337
											c-0.257,0.595-1.697,1.44-2.285,1.652c-0.736,0.267-1.042,0.193-1.681,0.701c-0.296,0.235-0.447,0.553-0.781,0.755
											c-0.62,0.376-1.34,0.186-1.987,0.424c-1.025,0.376-0.765,0.887-1.292,1.668c-0.315,0.469-0.569,0.489-0.99,0.829
											c-0.331,0.267-1.977,2.272-2.096,0.476c-0.035-0.53,0.569-0.669,0.865-1.096c0.585-0.839,0.293-1.929,0.714-2.813
											c0.813-1.716,2.408-3.388,2.424-5.49c0.016-2.244-3.044-1.565-4.011-0.865c0,0.029-0.447,0.521-0.45,0.521l0.003-0.006
											c-0.003,0.003-0.003,0.003-0.006,0.006c-0.129,0.148-0.386,0.148-0.495,0.312c-0.479,0.694-0.119,1.08,0.611,1.369
											c-0.344,0.729-0.64,0.919-0.643,1.826c-0.01,1.26,0.354,1.135-1.022,1.276c-0.514,0.051-0.701-0.241-1.209,0.219
											c-0.328,0.299-0.238,0.954-0.504,1.176c-0.469,0.383-1.559,0.19-1.745-0.395c0.472-0.505-0.315-0.608-0.45-1.103
											c-0.232-0.868,0.022-0.537,0.903-0.935c0.984-0.45,0.961-1.176,1.128-2.285c-0.566-0.244-1.437,0.669-2.128,0.762
											c-1.07,0.148-1.34-0.231-1.511,0.881c-0.045,0.273,0.424,0.608,0.202,0.913c-0.267,0.36-1.154,0.113-1.485,0.029
											c-1.125-0.28-1.315-0.627-2.526-0.215c-1.273,0.437-4.464,1.382-4.204,3.211c0.129,0.919,1.299,1.183,1.064,2.17
											c-0.248,1.028-1.379,1.224-1.173,2.53c0.787,0.244,0.653-0.296,1.054-0.627c0.698-0.572,1.064-0.498,2.031-0.746
											c1.569-0.402,0.877-1.475,1.665-2.568c0.331-0.46,0.9-0.521,1.344-0.861c0.379-0.289,0.669-1.029,1.128-1.173
											c1.228-0.382,0.466,0.89,1.54,1.086c0.071,0.688-0.916,1.221-0.296,1.781c0.614,0.556,1.675-0.726,2.173-0.411
											c0.73,0.463-0.488,1.552-0.373,2.137c0.1,0.521,0.611,0.498,0.842,0.887c0.254,0.418,0.154,0.598,0.234,0.945
											c0.029,0.135,0.222,1.096,0.158,1.231c-0.312,0.649-1.945,0.91-2.571,0.993c-1.128,0.148-1.909-0.505-3.041-0.514
											c-1.205-0.013-2.694,0.148-3.751,0.736c0.804,0.09,3.211-0.244,3.253,0.656c0.016,0.302-1.614,2.067,0.27,1.623
											c-0.061,0.161-0.026,0.447-0.1,0.611c1.617,0.109,1.832,0.511,0.051,1.186c-0.768,0.292-2.459,1.115-3.076,0.334
											c0.212-0.28,0.492-0.54,0.775-0.73c-1.395-0.273-3.166,0.26-4.188,1.205c-0.183,0.167-0.196,0.553-0.392,0.723
											c-0.607,0.527-1.533,0.627-2.26,0.884c-0.961,0.344-1.356,0.421-1.768,1.392c-0.379,0.894-0.257,1.369-1.157,1.99
											c-0.678,0.473-1.514,0.694-2.247,1.067c-1.189,0.607-2.375,1.61-2.767,2.967c-0.151,0.524,0.444,4.86-0.871,4.33
											c-0.469-0.19-0.788-2.636-0.73-2.935c0.238-1.209,1.466-2.147-0.074-3.24c-0.71-0.505-3.24-0.836-4.172-0.482
											c-1.826,0.688-4.853,8.788-2.549,9.527c0.845-0.804,1.552-2.195,3.005-1.601c0.023,0.913-1.459,1.492-1.613,2.469
											c-0.048,0.302,0.247,0.563,0.228,0.771c-0.026,0.28-0.511,1.083-0.456,1.267c0.196,0.665,1.215,0.354,1.63,1.067
											c0.431,0.742-0.122,1.604-0.277,2.333c-0.202,0.964-0.026,2.166,0.167,3.118c0.183,0.906,0.35,1.395,1.331,1.523
											c0.251,0.035,0.415-0.44,0.752-0.309c0.501,0.196,0.437,1.652,1.051,1.7c0.395,0.029,0.739-0.781,1.061-1.003
											c0.601-0.421,0.935-0.186,1.511-0.286c0.8-0.141,1.729-0.929,2.417-0.331c0.508,0.447,0.537,1.254,1.202,1.733
											c0.681,0.495,1.835,0.951,2.626,1.257c1.466,0.563,2.761,0.026,3.712,1.379c0.781,1.112,1.154,2.986,2.346,3.748
											c0.884,0.566,1.951,0.196,2.822,0.903c0.662,0.537,0.9,1.337,1.308,2.048c0.659,1.144,1.337,2.047,2.497,2.722
											c0.993,0.579,2.256,0.878,3.137,1.607c0.823,0.681,1.231,1.417,2.247,1.977c0.878,0.485,1.729,0.691,2.629,1.029
											c0.418,0.154,0.826,0.363,1.221,0.566c0.173,0.09,0.048,0.309,0.241,0.386c0.556,0.225,1.199,0.074,1.765,0.251
											c2.851,0.894-0.591,5.374-1.462,6.654c-0.54,0.794-0.948,1.443-0.929,2.459c0.023,1.061,0.598,1.739,0.119,2.713
											c-0.804,1.62-3.079,1.765-4.58,1.896c-0.752,0.064-2.362,0.084-2.536,0.858c-0.636,0.601-0.591,1.128-0.964,1.829
											c-0.431,0.803-1.157,1.356-2.009,1.816c-1.141,0.614-2.298,0.646-3.137,1.739c-0.881,1.144-0.598,2.378-0.906,3.671
											c-0.064,0.264-0.148,0.527-0.251,0.791c-1.88-0.942-3.693-1.996-5.432-3.156c-1.07-1.678-1.511-3.555-2.574-5.201
											c-1.183-1.835-0.029-3.253-0.154-5.262c-0.138-2.298-2.208-4.465-3.298-6.412c-1.324-2.366-2.205-5.275-3.899-7.402
											c-1.144-1.44-3.941-1.961-3.844-4.159c0.058-1.337,1.148-2.88,1.716-4.069c1.27-2.668,1.8-4.195,0.305-6.734
											c-1.88-0.138-2.571-0.466-3.195-2.263c-0.514-1.475,0.212-3.892-0.858-5.043c-0.71-0.759-1.199-1.668-1.417-2.678
											c-0.273-1.27-0.797-1.614-2.012-2.25c-0.556-0.292-1.523-0.698-2.279-1.209c4.834-22.95,25.197-40.178,49.586-40.178
											C370.237,177.181,374.204,177.663,378.006,178.576z"/>
										<path style="fill:#734FA0;" d="M416.825,227.854c0,15.428-6.898,29.247-17.775,38.542
											c-0.003-0.013-0.006-0.029-0.01-0.042c-0.476-2.144-0.845-3.288,0.273-5.249c0.434-0.765,0.868-1.289,0.771-2.147
											c-0.067-0.627-0.492-1.148-0.456-1.797c0.068-1.302,1.356-1.88,1.697-3.021c0.309-1.035-0.504-1.948-0.251-2.944
											c0.174-0.678,0.816-0.955,1.135-1.501c0.27-0.463,0.228-0.897,0.328-1.395c0.427-2.173-0.048-3.835-1.726-5.303
											c0.129,0.129,0.248,0.264,0.357,0.408c-1.543-0.906,0.254-4.169-0.675-5.451c-0.91-1.254-2.53,0.428-3.597,0.219
											c-0.402-0.08-0.733-0.533-1.128-0.546c-0.807-0.026-2.385,0.787-3.118,1.125c-1.453,0.672-3.176,2.501-4.879,2.317
											c-1.626-0.177-2.633-1.951-3.028-3.259c-0.505-1.668-2.121-2.176-3.622-3.111c-1.122-0.698-2.018-1.366-2.07-2.758
											c-0.045-1.215,0.797-2.038,0.939-3.16c0.228-1.816-2.067-2.886-1.099-4.953c0.28-0.595,0.742-0.929,0.974-1.591
											c0.244-0.707,0.19-1.427,0.588-2.112c0.669-1.154,1.671-2.195,2.417-3.324c0.887-1.347,0.379-2.713,1.604-3.86
											c0.948-0.89,0.906-1.212,1.36-2.398c0.659,0.19,0.868,0.845,1.543,0.916c0.672,0.068,1.848-0.733,2.25-1.144
											c1.134-1.154,0.971-0.968,2.61-1.504c1.064-0.35,1.639-0.537,2.761-0.318c0.775-1.559,1.864,2.253,2.639,2.565
											c0.556,0.222,1.302-0.055,1.919,0.199c0.392,0.161,0.714,0.595,1.083,0.682c0.62,0.148,1.688-0.132,2.202-0.46
											c-0.212-0.829-1.022-1.649,0.17-1.752c0.338-0.029,0.762,0.395,1.099,0.466c0.665,0.138,1.53-0.042,2.179-0.219
											c0.26-1.061,1.71-0.842,1.492-2.327c-0.17-1.138-1.298-2.183-1.597-3.407c-0.215-0.878-0.19-1.504-0.964-2.067
											c-0.032,0.884,0.537,1.81-0.167,2.671c-1.517-0.247-2.941-0.527-2.96-2.346c-0.01-0.736-0.103-0.299,0.341-0.826
											c0.174-0.206,0.569-0.148,0.762-0.344c0.116-0.119,0.016-0.495,0.077-0.55c0.453-0.376,1.25-0.466,1.713-0.98
											c-0.283-0.955-1.109-1.492-2.035-1.691c-0.225-0.048-0.247-0.289-0.514-0.312c-0.157-0.013-0.649,0.367-0.81,0.379
											c-0.611,0.055-1.18-0.45-1.771-0.334c0.219,1.27,0.627,2.472,0.842,3.732c0.116,0.675,0.318,0.669,0.122,1.359
											c-0.068,0.244-0.53,0.424-0.643,0.746c1.566,0.765,1.07,1.43-0.009,2.06c-0.662-0.723-0.829-1.877-1.459-2.6
											c-0.08-0.096-1.035-1.122-1.128-1.157c-0.469-0.19-1.234,0.055-1.787-0.08c-0.894-0.219-1.633-0.887-2.443-1.106
											c0.665,1.132,1.732,1.578,2.816,2.26c0.46,0.286,3.201,0.996,1.665,1.614c0.463,0.63,0.765,1.903-0.321,2.105
											c0.563-1.35-0.681-2.443-1.797-2.887c-0.704-0.28-1.482-0.251-2.179-0.517c-0.572-0.215-1.443-1.25-2.041-1.199
											c-0.411,0.035-1.225,1.157-1.607,1.514c1.356,2.218-2.735,3.298-1.366,5.139c-0.379,0.286-0.955,0.643-1.424,0.849
											c-0.758,0.328-0.852,0.051-1.469,0.129c-0.443,0.055-0.932,0.334-1.311,0.234c-0.286-0.077-1.08-0.842-1.507-1.035
											c0.035-0.617,0.331-1.167,0.132-1.771c-0.228-0.694-1.401-1.189-1.283-2.054c0.116-0.816,1.009-1.244,1.797-1.289
											c0.701-0.038,1.957,0.852,2.369,0.003c0.212-0.431-0.347-1.379-0.495-1.768c-0.26-0.691-0.598-0.958-0.961-1.501
											c-0.276-0.418-0.849-0.546,0.01-0.906c-0.138-0.681,0.929-1.189,1.305-1.742c0.408-0.601,0.559-1.282,0.993-1.88
											c0.553-0.762,0.665-0.678,1.52-0.977c0.444-0.158,1.607-0.672,1.913-0.974c0.813-0.791,0.27-1.749,0.177-2.671
											c-0.074-0.762-0.228-0.691,0.055-1.482c0.225-0.627,0.617-0.823,0.273-1.626c-0.826,0.816-1.36,1.784-2.552,1.07
											c-0.164-0.1-0.112-0.427-0.283-0.566c-0.321-0.264-0.82-0.235-1.154-0.508c-0.421-0.344-0.659-1.205-1-1.598
											c0.01,1.016,0.341,2.16,1.112,2.848c0.804,0.714,1.977,1.225,2.186,2.228c0.35,1.668-2.542,3.269-2.555,1.35
											c0.231,0.135,0.504,0.109,0.72,0.19c-0.093-0.341-0.1-0.701-0.016-1.058c-0.373-0.215-1.022-0.672-1.472-0.633
											c-0.405,0.035-0.299,0.363-0.607,0.45c-1.086,0.296-0.707,0.064-1.315-0.354c-1.025-0.704-1.774-0.987-1.45-2.301
											c0.209-0.858,0.926-1.585,0.46-2.517c-0.289-0.588-2.199-1.575-1.221-2.298c0.283-0.212,1.681,0.264,2.102,0.264
											c0.727,0,1.418-0.103,2.009-0.524c0.996,0.739,2.051,1.633,3.063,2.115c-0.444-0.611-0.852-1.411-1.128-2.112
											c-1.613,0.212-0.604-0.945-0.73-1.678c-0.106-0.614-0.727-1.032-1.022-1.617
											C404.006,188.775,416.825,206.817,416.825,227.854z"/>
										<path style="fill:#0C7C7E;" d="M329.108,217.042c-0.605-0.348-1.335-0.935-2.009-1.044
											c-0.629-0.102-1.482,0.296-0.886,0.968c0.136,0.153,0.638,0.144,0.846,0.278c0.404,0.26,0.35,0.503,0.64,0.806
											c0.267,0.28,0.671,0.313,0.93,0.559c0.279,0.265,0.354,0.716,0.519,1.045c0.383,0.761,0.755,1.169,1.633,0.993
											c0.266-0.557-0.22-0.7-0.468-1.113c-0.24-0.399-0.197-0.524-0.304-0.946C329.826,217.859,329.267,217.634,329.108,217.042
											z"/>
										<path style="fill:#0C7C7E;" d="M334.411,222.747c-0.974-0.217-1.556-1.424-2.556-0.971
											c-0.143,0.065-0.159,0.428-0.333,0.494c-0.228,0.086-0.551-0.053-0.767-0.086c-0.466-0.071-0.939-0.293-1.394-0.309
											c-0.127,0.733,0.848,0.815,1.354,0.872c0.786,0.088,1.124,0.111,1.804,0.529c0.772,0.475,0.846,0.5,1.53,0.274
											C334.502,223.399,335.301,223.207,334.411,222.747z"/>
									</g>
								</g>
								<g style="opacity:0.45;">
									<path style="fill:#7CD9E5;" d="M413.3,209.292c-7.254,22.648-28.472,39.047-53.528,39.047
										c-17.979,0-33.973-8.452-44.262-21.587c-0.008,0.367-0.028,0.732-0.028,1.101c0,27.985,22.686,50.67,50.671,50.67
										c27.984,0,50.67-22.686,50.67-50.67C416.824,221.299,415.566,215.042,413.3,209.292z"/>
								</g>
							</g>
							<g>
								<path style="fill:#475588;" d="M423.106,251.374c-0.478,2.189-11.888,52.845-58.47,52.845
									c-46.567,0-57.977-50.656-58.456-52.845c0.812,1.58,26.676,2.827,58.456,2.827
									C396.43,254.201,422.295,252.954,423.106,251.374z"/>
								<path style="fill:#202D3B;" d="M364.633,289.113c-22.586,0-39.375-8.346-51.735-19.489
									c7.649,15.291,22.988,34.595,51.738,34.595c28.765,0,44.107-19.311,51.757-34.603
									C404.029,280.762,387.231,289.113,364.633,289.113z"/>
							</g>
						</g>
					</g>
					<g>
						<g>
							<path style="fill:#475588;" d="M112.768,115.395c3.387,0.436,5.779,3.536,5.342,6.923c-0.436,3.387-3.536,5.779-6.923,5.342
								c-3.387-0.436-5.779-3.536-5.342-6.923C106.282,117.351,109.381,114.959,112.768,115.395z"/>
							<path style="fill:#314488;" d="M113.3,121.698c-0.311,2.412-1.755,4.382-3.715,5.503c0.505,0.213,1.032,0.385,1.602,0.459
								c3.387,0.436,6.486-1.955,6.923-5.342c0.436-3.387-1.956-6.487-5.342-6.923c-0.57-0.073-1.124-0.04-1.666,0.038
								C112.713,117.014,113.611,119.286,113.3,121.698z"/>
							<path style="fill:#6966A1;" d="M107.321,121.203c0.726-0.49,1.855-0.085,2.522,0.904c0.667,0.989,0.619,2.187-0.107,2.677
								c-0.726,0.49-1.855,0.085-2.522-0.903C106.547,122.892,106.595,121.693,107.321,121.203z"/>
						</g>
						<g>
							<path style="fill:#475588;" d="M365.43,147.949c-3.387-0.436-6.486,1.956-6.923,5.342c-0.436,3.387,1.956,6.486,5.343,6.923
								c3.387,0.436,6.486-1.956,6.923-5.343C371.209,151.485,368.817,148.386,365.43,147.949z"/>
							<path style="fill:#314488;" d="M363.318,153.912c-0.311,2.412,0.587,4.684,2.199,6.265c-0.542,0.078-1.096,0.111-1.666,0.038
								c-3.387-0.436-5.779-3.536-5.343-6.923c0.437-3.387,3.536-5.779,6.923-5.342c0.57,0.074,1.097,0.246,1.602,0.459
								C365.073,149.529,363.628,151.5,363.318,153.912z"/>
							<path style="fill:#6966A1;" d="M369.227,154.949c-0.578-0.658-1.773-0.553-2.669,0.235c-0.896,0.787-1.154,1.959-0.575,2.617
								c0.578,0.658,1.773,0.553,2.669-0.235C369.548,156.778,369.805,155.607,369.227,154.949z"/>
						</g>
					</g>
				</g>
			</g>
			<g>
				<g>
					<g>
						<ellipse style="fill:#CDD7E6;" cx="439.135" cy="422.447" rx="34.674" ry="2.094"/>
						<g>
							<polygon style="fill:#97410A;" points="463.867,422.112 453.943,422.112 425.295,286.918 435.219,286.918 							"/>
							<polygon style="fill:#B56014;" points="467.479,422.112 463.867,422.112 435.219,286.918 438.83,286.918 							"/>
							<g>
								<g>
									<rect x="398.165" y="301.442" style="fill:#C0761E;" width="37.054" height="4.149"/>
									<rect x="402.88" y="321.841" style="fill:#C0761E;" width="37.054" height="4.149"/>
									<rect x="407.595" y="342.241" style="fill:#C0761E;" width="37.054" height="4.149"/>
									<rect x="412.31" y="362.64" style="fill:#C0761E;" width="37.054" height="4.149"/>
									<rect x="415.695" y="383.039" style="fill:#C0761E;" width="38.384" height="4.149"/>
									<rect x="419.476" y="403.438" style="fill:#C0761E;" width="39.319" height="4.149"/>
								</g>
							</g>
							<polygon style="fill:#B56014;" points="425.018,422.112 421.407,422.112 392.758,286.918 396.37,286.918 							"/>
							<polygon style="fill:#97410A;" points="421.407,422.112 411.483,422.112 382.835,286.918 392.758,286.918 							"/>
							<polygon style="fill:#733108;" points="435.219,305.591 430.937,313.543 429.252,305.591 							"/>
							<polygon style="fill:#733108;" points="439.934,325.991 435.037,332.892 433.575,325.991 							"/>
							<polygon style="fill:#733108;" points="444.649,346.39 439.368,353.327 437.897,346.39 							"/>
							<polygon style="fill:#733108;" points="449.364,366.789 444.171,375.996 442.22,366.789 							"/>
							<polygon style="fill:#733108;" points="454.079,387.188 448.112,394.593 446.543,387.188 							"/>
							<polygon style="fill:#733108;" points="458.794,407.587 452.268,414.205 450.865,407.587 							"/>
						</g>
						<g>
							<path style="fill:#005885;" d="M447.113,290.073c0,0-17.005,19.063-17.127,20.206c-0.122,1.142,3.973,25.019,3.973,25.019
								h4.385l13.288-40.392L447.113,290.073z"/>
							<polygon style="fill:#00012F;" points="433.958,335.297 434.415,339.957 429.207,342.241 437.521,342.241 438.344,335.297 
															"/>
							<path style="fill:#00729E;" d="M441.182,295.701c0,0-5.299,31.43-5.299,32.891c0,1.462,2.65,27.135,2.65,27.135h4.385
								c0,0,2.01-23.755,2.832-26.222c0.822-2.467,12.334-26.404,13.339-28.963s2.832-8.314,2.375-11.055L441.182,295.701z"/>
							<polygon style="fill:#00012F;" points="438.532,355.728 438.989,360.388 433.781,362.672 442.095,362.672 442.918,355.728 
															"/>
							<polygon style="fill:#00668C;" points="461.537,290.554 439.994,303.296 441.182,295.701 							"/>
							<g>
								<path style="fill:#F4A57F;" d="M420.598,237.407c0,0-2.176-3.207-2.462-4.524c-0.286-1.317-1.603-11.453-1.603-11.453
									s-0.859-0.896-0.859,0.64c0,1.536,0,3.54,0,3.54s-0.745-0.229-0.745,0.63c0,0.859,0,9.506,0,9.506l1.89,3.98
									L420.598,237.407z"/>
								<path style="fill:#00879C;" d="M420.598,237.407l10.909,17.265c0,0,10.479-4.518,13.055-4.432
									c2.577,0.086,4.412,0.343,6.258,6.265c0.682,2.188-16.393,9.59-20.774,9.161c-4.381-0.429-13.228-25.94-13.228-25.94
									L420.598,237.407z"/>
							</g>
							<polygon style="fill:#F4B79A;" points="440.406,248.557 440.044,255.271 447.303,250.202 445.476,244.537 							"/>
							<path style="fill:#00B9C0;" d="M449.496,251.024c0,0,8.04,7.928,13.157,39.185l-23.663,7.319l1.005-40.657L449.496,251.024z"
								/>
							<polygon style="fill:#FFFFFF;" points="440.095,253.669 447.303,249.173 449.496,251.024 439.994,256.871 							"/>
							<polygon style="fill:#00879C;" points="453.066,260.587 439.481,277.607 439.776,265.685 							"/>
							<g>
								<path style="fill:#F4B79A;" d="M419.653,243.323c0,0-2.176-3.207-2.462-4.524c-0.286-1.317-1.603-11.453-1.603-11.453
									s-0.859-0.896-0.859,0.64c0,1.536,0,3.54,0,3.54s-0.744-0.229-0.744,0.63c0,0.859,0,9.506,0,9.506l1.89,3.98
									L419.653,243.323z"/>
								<path style="fill:#00B9C0;" d="M419.653,243.323l10.909,17.265c0,0,16.577-6.013,19.154-5.927
									c2.577,0.086,3.865,3.693,3.35,5.927c-0.515,2.233-19.584,11.424-23.965,10.995c-4.381-0.43-13.228-25.94-13.228-25.94
									L419.653,243.323z"/>
							</g>
							<path style="fill:#F4A57F;" d="M445.748,245.381c0,0-1.507,4.423-5.54,6.849l0.198-3.673l5.07-4.02L445.748,245.381z"/>
							<path style="fill:#F4B79A;" d="M436.888,232.02l-3.198,16.994c0,0,8.131,1.462,12.791-4.477l2.01-12.06L436.888,232.02z"/>
							<path style="fill:#072756;" d="M433.233,226.355c0,0,1.096,6.396,6.03,6.67c4.934,0.274,7.492,0.731,6.396,3.563
								c-1.096,2.832-1.645,4.66-1.645,4.66h1.096l1.37,3.289c0,0,9.959-4.02,7.675-10.872c0,0,0.914,0,1.736,0.731
								c0,0-0.914-2.01-2.375-1.919c0,0,0.731-1.005,0.731-2.741c0,0-0.548,1.553-1.279,2.284c0,0-0.457-7.492-7.218-6.761
								C438.989,225.99,438.441,229.188,433.233,226.355z"/>
							<path style="fill:#F4B79A;" d="M446.024,239.421c0,0,1.005-2.741,2.467-2.101c1.462,0.64-0.548,8.314-3.929,5.482
								L446.024,239.421z"/>
						</g>
					</g>
					<g>
						<path style="fill:#CDD7E6;" d="M380.369,421.2c0,1.395-11.732,2.525-26.205,2.525c-14.473,0-26.205-1.131-26.205-2.525
							c0-1.395,11.732-2.525,26.205-2.525C368.637,418.674,380.369,419.805,380.369,421.2z"/>
						<g>
							
								<line style="fill:none;stroke:#00B455;stroke-width:0.6465;stroke-miterlimit:10;" x1="354.164" y1="390.521" x2="354.164" y2="352.056"/>
							<g>
								<path style="fill:#00B455;" d="M357.565,340.689c0-6.784-3.401-12.283-3.401-12.283s-3.401,5.499-3.401,12.283
									c0,6.784,3.401,12.283,3.401,12.283S357.565,347.472,357.565,340.689z"/>
								<g>
									<path style="fill:#9FE83F;" d="M354.164,350.682c-0.059-1.636-0.102-3.273-0.124-4.909l-0.038-4.909l0.037-4.909
										c0.022-1.636,0.065-3.273,0.124-4.909c0.06,1.636,0.103,3.273,0.124,4.909l0.037,4.909l-0.038,4.909
										C354.266,347.409,354.223,349.046,354.164,350.682z"/>
								</g>
							</g>
							<g>
								<path style="fill:#00B455;" d="M346.49,361.741c-5.382-4.13-11.815-4.78-11.815-4.78s2.292,6.046,7.674,10.176
									c5.382,4.13,11.815,4.78,11.815,4.78S351.872,365.871,346.49,361.741z"/>
								<g>
									<path style="fill:#9FE83F;" d="M352.348,370.523c-1.334-0.949-2.659-1.911-3.97-2.891l-3.917-2.959l-3.872-3.018
										c-1.285-1.013-2.557-2.044-3.819-3.087c1.334,0.949,2.659,1.911,3.97,2.89l3.917,2.959l3.872,3.019
										C349.814,368.449,351.086,369.48,352.348,370.523z"/>
								</g>
							</g>
							<g>
								<path style="fill:#00B455;" d="M364.957,355.264c4.573-5.01,5.769-11.364,5.769-11.364s-6.219,1.769-10.793,6.779
									c-4.573,5.01-5.769,11.364-5.769,11.364S360.383,360.275,364.957,355.264z"/>
								<g>
									<path style="fill:#9FE83F;" d="M355.708,360.352c1.06-1.249,2.131-2.486,3.218-3.709l3.282-3.651l3.337-3.601
										c1.119-1.194,2.254-2.374,3.401-3.542c-1.059,1.249-2.131,2.486-3.218,3.71l-3.282,3.651l-3.337,3.6
										C357.99,358.004,356.855,359.184,355.708,360.352z"/>
								</g>
							</g>
							<g>
								<path style="fill:#00B455;" d="M364.957,377.12c4.573-5.01,5.769-11.365,5.769-11.365s-6.219,1.769-10.793,6.779
									c-4.573,5.01-5.769,11.365-5.769,11.365S360.383,382.13,364.957,377.12z"/>
								<g>
									<path style="fill:#9FE83F;" d="M355.708,382.208c1.06-1.249,2.131-2.486,3.218-3.709l3.282-3.651l3.337-3.601
										c1.119-1.194,2.254-2.374,3.401-3.542c-1.059,1.249-2.131,2.486-3.218,3.71l-3.282,3.651l-3.337,3.6
										C357.99,379.86,356.855,381.04,355.708,382.208z"/>
								</g>
							</g>
							<path style="fill:#2C2041;" d="M365.024,421.309h-21.72c-1.43,0-2.628-1.081-2.775-2.503l-3.214-31.194h33.697l-3.214,31.194
								C367.652,420.228,366.454,421.309,365.024,421.309z"/>
							<path style="fill:#241B36;" d="M367.802,414.656h-27.275c-0.146,0-0.287-0.023-0.428-0.04l0.432,4.19
								c0.147,1.422,1.345,2.504,2.775,2.504h21.719c1.43,0,2.628-1.081,2.775-2.504l0.432-4.19
								C368.089,414.633,367.948,414.656,367.802,414.656z"/>
							<polygon style="fill:#34264D;" points="357.194,387.612 356.332,412.609 362.689,412.609 368.23,387.612 							"/>
							
								<line style="fill:none;stroke:#6F4DA8;stroke-width:0.3232;stroke-miterlimit:10;" x1="339.523" y1="409.031" x2="368.806" y2="409.031"/>
						</g>
					</g>
				</g>
				<g>
					<g>
						
							<linearGradient id="SVGID_00000048462127071175743650000013104990847829233324_" gradientUnits="userSpaceOnUse" x1="122.9681" y1="646.5397" x2="122.9681" y2="704.6769" gradientTransform="matrix(0.9654 -0.2608 0.2608 0.9654 -165.4988 -226.6302)">
							<stop  offset="0" style="stop-color:#FCC30B"/>
							<stop  offset="0.9997" style="stop-color:#FC860B"/>
						</linearGradient>
						
							<circle style="fill:url(#SVGID_00000048462127071175743650000013104990847829233324_);" cx="126.759" cy="383.707" r="27.479"/>
						<g>
							<path style="fill:#FB7521;" d="M123.625,406.941c-9.064-1.235-16.966-7.747-19.498-17.118
								c-3.372-12.479,4.037-25.376,16.517-28.748c12.48-3.375,25.376,4.037,28.748,16.517l0,0
								c3.372,12.479-4.037,25.376-16.516,28.748C129.766,407.18,126.632,407.351,123.625,406.941z M129.811,361.08
								c-2.929-0.399-5.981-0.233-9.009,0.584c-12.153,3.285-19.37,15.845-16.086,27.999c3.286,12.154,15.847,19.37,27.999,16.086
								c12.153-3.285,19.37-15.845,16.086-27.999C146.335,368.625,138.637,362.283,129.811,361.08z"/>
						</g>
						
							<linearGradient id="SVGID_00000059999336009861406850000010959324111446534542_" gradientUnits="userSpaceOnUse" x1="122.968" y1="652.5719" x2="122.968" y2="692.1456" gradientTransform="matrix(0.9654 -0.2608 0.2608 0.9654 -165.4988 -226.6302)">
							<stop  offset="2.890000e-04" style="stop-color:#FBE43B"/>
							<stop  offset="0.422" style="stop-color:#FBD529"/>
							<stop  offset="1" style="stop-color:#FCBC0B"/>
						</linearGradient>
						<path style="fill:url(#SVGID_00000059999336009861406850000010959324111446534542_);" d="M144.816,378.828
							c2.695,9.973-3.205,20.242-13.178,22.937c-9.973,2.695-20.242-3.205-22.936-13.178c-2.695-9.973,3.205-20.242,13.178-22.936
							C131.852,362.955,142.121,368.855,144.816,378.828z"/>
						<g>
							<path style="fill:#FB7D30;" d="M130.812,392.844l0.473,1.697l-2.631,0.724l-0.495-1.777
								c-2.491,0.338-4.952-0.087-7.104-1.264l1.564-3.765c2.107,1.015,4.244,1.355,6.368,0.77c1.618-0.445,2.257-1.376,1.98-2.372
								c-0.308-1.105-1.184-1.124-3.893-1.075c-3.965,0.134-7.022-0.184-8.058-3.902c-0.894-3.205,0.658-6.039,3.858-7.355
								l-0.473-1.697l2.631-0.724l0.473,1.697c2.292-0.37,4.354-0.009,6.247,0.919l-1.285,3.893
								c-1.954-0.855-3.886-1.048-5.505-0.603c-1.39,0.383-1.979,1.299-1.724,2.215c0.315,1.131,1.255,1.279,3.999,1.162
								c4.143-0.183,6.976,0.313,7.945,3.788C136.143,388.623,134.49,391.485,130.812,392.844z"/>
						</g>
						<g>
							<path style="opacity:0.3;fill:#FFFFFF;" d="M123.064,356.475l-1.286,54.264c-4.316-0.803-8.367-2.624-11.816-5.285
								l1.052-44.277c2.537-1.776,5.421-3.147,8.58-4.001C120.752,356.863,121.905,356.628,123.064,356.475z"/>
							<path style="opacity:0.3;fill:#FFFFFF;" d="M143.555,361.96l-1.057,44.288c-2.532,1.766-5.407,3.135-8.566,3.988
								c-1.158,0.313-2.319,0.551-3.478,0.703l1.286-54.264C136.053,357.47,140.106,359.299,143.555,361.96z"/>
						</g>
					</g>
					<g>
						<path style="fill:#CDD7E6;" d="M164.339,415.676c0,3.457-18.467,6.26-41.247,6.26s-41.247-2.802-41.247-6.26
							c0-3.457,18.467-6.26,41.247-6.26S164.339,412.219,164.339,415.676z"/>
						<g>
							<g>
								<path style="fill:#FBD23B;" d="M151.64,407.524v5.786c0,1.486-2.119,2.86-5.748,4.004c-6.031,1.9-16.242,3.146-27.817,3.146
									c-11.575,0-21.786-1.246-27.817-3.146c-3.629-1.144-5.748-2.518-5.748-4.004v-5.786H151.64z"/>
								<path style="fill:#FBD23B;" d="M151.64,413.31c0,1.486-2.119,2.86-5.748,4.004c-6.031,1.9-16.242,3.146-27.817,3.146
									c-11.575,0-21.786-1.246-27.817-3.146c-3.629-1.144-5.748-2.518-5.748-4.004c0-2.38,5.458-4.489,13.854-5.786
									c5.53-0.858,12.345-1.363,19.711-1.363c7.366,0,14.181,0.506,19.711,1.363C146.182,408.821,151.64,410.93,151.64,413.31z"/>
								
									<linearGradient id="SVGID_00000032613443031967142200000000087443787007116934_" gradientUnits="userSpaceOnUse" x1="141.7685" y1="443.0639" x2="104.3076" y2="386.8727">
									<stop  offset="0" style="stop-color:#FCC30B"/>
									<stop  offset="0.9997" style="stop-color:#FC860B"/>
								</linearGradient>
								<path style="fill:url(#SVGID_00000032613443031967142200000000087443787007116934_);" d="M151.64,407.524
									c0,3.948-15.027,7.149-33.565,7.149c-18.537,0-33.565-3.201-33.565-7.149c0-3.948,15.027-7.149,33.565-7.149
									C136.613,400.375,151.64,403.576,151.64,407.524z"/>
								<path style="fill:none;stroke:#FB7521;stroke-width:0.7172;stroke-miterlimit:10;" d="M146.33,407.524
									c0,3.324-12.65,6.018-28.255,6.018c-15.605,0-28.255-2.694-28.255-6.018c0-3.324,12.65-6.018,28.255-6.018
									C133.68,401.506,146.33,404.2,146.33,407.524z"/>
								
									<linearGradient id="SVGID_00000183966363148817755620000005010887864694185383_" gradientUnits="userSpaceOnUse" x1="118.0752" y1="402.9282" x2="118.0752" y2="409.5668">
									<stop  offset="0" style="stop-color:#FCBC0B"/>
									<stop  offset="0.578" style="stop-color:#FBD529"/>
									<stop  offset="0.9997" style="stop-color:#FBE43B"/>
								</linearGradient>
								<path style="fill:url(#SVGID_00000183966363148817755620000005010887864694185383_);" d="M140.731,407.524
									c0,2.665-10.143,4.826-22.656,4.826s-22.656-2.161-22.656-4.826c0-2.665,10.144-4.826,22.656-4.826
									S140.731,404.859,140.731,407.524z"/>
								<g>
									<path style="fill:#FB7D30;" d="M119.452,410.185l0.005,0.475l-2.51,0.013l-0.005-0.498
										c-2.292-0.078-4.371-0.354-5.993-0.806l2.308-0.88c1.621,0.407,3.434,0.639,5.461,0.628
										c1.545-0.008,2.339-0.209,2.336-0.488c-0.003-0.309-0.776-0.373-3.191-0.542c-3.55-0.23-6.184-0.518-6.195-1.56
										c-0.01-0.898,2.059-1.535,5.218-1.665l-0.005-0.475l2.51-0.013l0.005,0.475c2.124,0.057,3.864,0.289,5.316,0.659
										l-2.09,0.932c-1.524-0.354-3.191-0.534-4.735-0.526c-1.326,0.007-2.073,0.207-2.07,0.464
										c0.003,0.317,0.801,0.418,3.263,0.572c3.72,0.229,6.112,0.549,6.122,1.522
										C125.212,409.438,123.046,410.076,119.452,410.185z"/>
								</g>
								<g>
									<path style="opacity:0.3;fill:#FFFFFF;" d="M134.731,401.32l-40.735,11.184c-3.832-0.843-6.698-1.879-8.23-3.039
										l33.079-9.085C124.621,400.405,130.028,400.742,134.731,401.32z"/>
									<path style="opacity:0.3;fill:#FFFFFF;" d="M150.13,405.4l-33.724,9.263c-5.697-0.056-11.016-0.419-15.617-1.011
										l40.844-11.219C145.515,403.25,148.468,404.261,150.13,405.4z"/>
								</g>
								<g>
									
										<linearGradient id="SVGID_00000122710466754495439560000002514701633055635335_" gradientUnits="userSpaceOnUse" x1="86.1645" y1="413.0699" x2="87.4907" y2="413.0699">
										<stop  offset="0" style="stop-color:#FCC30B"/>
										<stop  offset="0.9997" style="stop-color:#FC860B"/>
									</linearGradient>
									<path style="fill:url(#SVGID_00000122710466754495439560000002514701633055635335_);" d="M87.491,415.032
										c-0.38-0.114-0.758-0.229-1.136-0.347c-0.064-1.192-0.127-2.385-0.191-3.577c0.38,0.118,0.761,0.234,1.143,0.348
										C87.368,412.648,87.43,413.84,87.491,415.032z"/>
									
										<linearGradient id="SVGID_00000178883304298744752990000003227512199385753781_" gradientUnits="userSpaceOnUse" x1="89.6287" y1="414.1854" x2="90.951" y2="414.1854">
										<stop  offset="0" style="stop-color:#FCC30B"/>
										<stop  offset="0.9997" style="stop-color:#FC860B"/>
									</linearGradient>
									<path style="fill:url(#SVGID_00000178883304298744752990000003227512199385753781_);" d="M90.951,416.127
										c-0.385-0.101-0.769-0.203-1.152-0.309c-0.057-1.192-0.113-2.383-0.17-3.575c0.386,0.105,0.772,0.208,1.16,0.309
										C90.842,413.744,90.897,414.936,90.951,416.127z"/>
									
										<linearGradient id="SVGID_00000127045855664598258240000004802573939485887663_" gradientUnits="userSpaceOnUse" x1="92.9943" y1="415.0221" x2="94.3108" y2="415.0221">
										<stop  offset="0" style="stop-color:#FCC30B"/>
										<stop  offset="0.9997" style="stop-color:#FC860B"/>
									</linearGradient>
									<path style="fill:url(#SVGID_00000127045855664598258240000004802573939485887663_);" d="M94.311,416.944
										c-0.39-0.088-0.779-0.178-1.167-0.27c-0.05-1.192-0.1-2.383-0.149-3.575c0.391,0.092,0.782,0.182,1.174,0.27
										C94.216,414.561,94.263,415.753,94.311,416.944z"/>
									
										<linearGradient id="SVGID_00000131341872973505086810000004865367833856871850_" gradientUnits="userSpaceOnUse" x1="96.4007" y1="415.7471" x2="97.7096" y2="415.7471">
										<stop  offset="0" style="stop-color:#FCC30B"/>
										<stop  offset="0.9997" style="stop-color:#FC860B"/>
									</linearGradient>
									<path style="fill:url(#SVGID_00000131341872973505086810000004865367833856871850_);" d="M97.71,417.65
										c-0.394-0.075-0.787-0.152-1.18-0.232c-0.043-1.192-0.086-2.383-0.129-3.575c0.395,0.079,0.791,0.157,1.187,0.232
										C97.628,415.267,97.669,416.459,97.71,417.65z"/>
									
										<linearGradient id="SVGID_00000010999388618039069190000007418123091550343611_" gradientUnits="userSpaceOnUse" x1="99.8421" y1="416.3607" x2="101.1417" y2="416.3607">
										<stop  offset="0" style="stop-color:#FCC30B"/>
										<stop  offset="0.9997" style="stop-color:#FC860B"/>
									</linearGradient>
									<path style="fill:url(#SVGID_00000010999388618039069190000007418123091550343611_);" d="M101.142,418.245
										c-0.398-0.062-0.795-0.127-1.191-0.193c-0.036-1.192-0.072-2.383-0.109-3.575c0.399,0.066,0.798,0.131,1.198,0.193
										C101.074,415.861,101.108,417.053,101.142,418.245z"/>
									
										<linearGradient id="SVGID_00000099663317951824844780000002768235883695438988_" gradientUnits="userSpaceOnUse" x1="103.3129" y1="416.8626" x2="104.6012" y2="416.8626">
										<stop  offset="0" style="stop-color:#FCC30B"/>
										<stop  offset="0.9997" style="stop-color:#FC860B"/>
									</linearGradient>
									<path style="fill:url(#SVGID_00000099663317951824844780000002768235883695438988_);" d="M104.601,418.728
										c-0.4-0.049-0.8-0.101-1.2-0.155c-0.03-1.192-0.059-2.384-0.089-3.576c0.402,0.054,0.804,0.105,1.207,0.154
										C104.547,416.343,104.574,417.536,104.601,418.728z"/>
									
										<linearGradient id="SVGID_00000165920465543985648470000012235991735735551368_" gradientUnits="userSpaceOnUse" x1="106.8071" y1="417.253" x2="108.0826" y2="417.253">
										<stop  offset="0" style="stop-color:#FCC30B"/>
										<stop  offset="0.9997" style="stop-color:#FC860B"/>
									</linearGradient>
									<path style="fill:url(#SVGID_00000165920465543985648470000012235991735735551368_);" d="M108.083,419.1
										c-0.402-0.036-0.805-0.075-1.207-0.116c-0.023-1.193-0.046-2.385-0.069-3.578c0.404,0.041,0.809,0.079,1.214,0.115
										C108.041,416.714,108.062,417.907,108.083,419.1z"/>
									
										<linearGradient id="SVGID_00000104689833534980211080000009312080227307272610_" gradientUnits="userSpaceOnUse" x1="110.3194" y1="417.5319" x2="111.5804" y2="417.5319">
										<stop  offset="0" style="stop-color:#FCC30B"/>
										<stop  offset="0.9997" style="stop-color:#FC860B"/>
									</linearGradient>
									<path style="fill:url(#SVGID_00000104689833534980211080000009312080227307272610_);" d="M111.58,419.361
										c-0.404-0.024-0.808-0.05-1.212-0.078c-0.017-1.194-0.033-2.387-0.049-3.581c0.406,0.028,0.812,0.053,1.218,0.077
										C111.552,416.973,111.566,418.167,111.58,419.361z"/>
									
										<linearGradient id="SVGID_00000062882824141192991880000003972509866538624924_" gradientUnits="userSpaceOnUse" x1="113.8439" y1="417.6992" x2="115.0886" y2="417.6992">
										<stop  offset="0" style="stop-color:#FCC30B"/>
										<stop  offset="0.9997" style="stop-color:#FC860B"/>
									</linearGradient>
									<path style="fill:url(#SVGID_00000062882824141192991880000003972509866538624924_);" d="M115.089,419.511
										c-0.405-0.011-0.81-0.024-1.215-0.039c-0.01-1.195-0.02-2.389-0.03-3.584c0.407,0.015,0.814,0.027,1.221,0.038
										C115.073,417.121,115.081,418.315,115.089,419.511z"/>
									
										<linearGradient id="SVGID_00000022550838010587464880000017760626068700546748_" gradientUnits="userSpaceOnUse" x1="117.3747" y1="417.7552" x2="118.6018" y2="417.7552">
										<stop  offset="0" style="stop-color:#FCC30B"/>
										<stop  offset="0.9997" style="stop-color:#FC860B"/>
									</linearGradient>
									<path style="fill:url(#SVGID_00000022550838010587464880000017760626068700546748_);" d="M118.602,419.549
										c-0.405,0.002-0.811,0.002-1.216-0.001c-0.004-1.196-0.008-2.391-0.011-3.587c0.407,0.002,0.815,0.002,1.222-0.001
										C118.598,417.156,118.6,418.353,118.602,419.549z"/>
									
										<linearGradient id="SVGID_00000157284671432869512750000002643379263541525939_" gradientUnits="userSpaceOnUse" x1="120.8992" y1="417.6982" x2="122.1275" y2="417.6982">
										<stop  offset="0" style="stop-color:#FCC30B"/>
										<stop  offset="0.9997" style="stop-color:#FC860B"/>
									</linearGradient>
									<path style="fill:url(#SVGID_00000157284671432869512750000002643379263541525939_);" d="M122.114,419.476
										c-0.405,0.015-0.81,0.027-1.215,0.038c0.002-1.197,0.005-2.395,0.007-3.592c0.407-0.011,0.814-0.024,1.221-0.04
										C122.123,417.081,122.118,418.278,122.114,419.476z"/>
									
										<linearGradient id="SVGID_00000018917673776089657010000004583582143262485397_" gradientUnits="userSpaceOnUse" x1="124.408" y1="417.5308" x2="125.6515" y2="417.5308">
										<stop  offset="0" style="stop-color:#FCC30B"/>
										<stop  offset="0.9997" style="stop-color:#FC860B"/>
									</linearGradient>
									<path style="fill:url(#SVGID_00000018917673776089657010000004583582143262485397_);" d="M125.62,419.292
										c-0.404,0.028-0.808,0.053-1.212,0.076c0.008-1.199,0.017-2.398,0.025-3.596c0.406-0.024,0.812-0.05,1.218-0.078
										C125.641,416.893,125.63,418.092,125.62,419.292z"/>
									
										<linearGradient id="SVGID_00000163042996797622516540000016811445107242404516_" gradientUnits="userSpaceOnUse" x1="127.9065" y1="417.2518" x2="129.1626" y2="417.2518">
										<stop  offset="0" style="stop-color:#FCC30B"/>
										<stop  offset="0.9997" style="stop-color:#FC860B"/>
									</linearGradient>
									<path style="fill:url(#SVGID_00000163042996797622516540000016811445107242404516_);" d="M129.114,418.996
										c-0.402,0.04-0.804,0.079-1.207,0.115c0.014-1.201,0.029-2.401,0.043-3.602c0.405-0.037,0.809-0.076,1.213-0.117
										C129.146,416.594,129.13,417.795,129.114,418.996z"/>
									
										<linearGradient id="SVGID_00000101080172596358582310000017553181432088786824_" gradientUnits="userSpaceOnUse" x1="131.3891" y1="416.8612" x2="132.6556" y2="416.8612">
										<stop  offset="0" style="stop-color:#FCC30B"/>
										<stop  offset="0.9997" style="stop-color:#FC860B"/>
									</linearGradient>
									<path style="fill:url(#SVGID_00000101080172596358582310000017553181432088786824_);" d="M132.589,418.59
										c-0.4,0.053-0.8,0.104-1.2,0.153c0.02-1.203,0.04-2.405,0.06-3.608c0.402-0.05,0.804-0.101,1.206-0.156
										C132.633,416.183,132.611,417.386,132.589,418.59z"/>
									
										<linearGradient id="SVGID_00000119088981673658705920000005952421544253372307_" gradientUnits="userSpaceOnUse" x1="134.8503" y1="416.3591" x2="136.1244" y2="416.3591">
										<stop  offset="0" style="stop-color:#FCC30B"/>
										<stop  offset="0.9997" style="stop-color:#FC860B"/>
									</linearGradient>
									<path style="fill:url(#SVGID_00000119088981673658705920000005952421544253372307_);" d="M136.042,418.072
										c-0.397,0.066-0.794,0.13-1.192,0.192c0.026-1.205,0.051-2.41,0.077-3.614c0.4-0.063,0.799-0.127,1.197-0.194
										C136.097,415.66,136.069,416.866,136.042,418.072z"/>
									
										<linearGradient id="SVGID_00000110454078683625958100000013942817086910004634_" gradientUnits="userSpaceOnUse" x1="138.2842" y1="415.7455" x2="139.5636" y2="415.7455">
										<stop  offset="0" style="stop-color:#FCC30B"/>
										<stop  offset="0.9997" style="stop-color:#FC860B"/>
									</linearGradient>
									<path style="fill:url(#SVGID_00000110454078683625958100000013942817086910004634_);" d="M139.465,417.442
										c-0.393,0.079-0.786,0.156-1.181,0.23c0.031-1.207,0.062-2.414,0.093-3.622c0.396-0.075,0.792-0.153,1.186-0.233
										C139.531,415.026,139.498,416.234,139.465,417.442z"/>
									
										<linearGradient id="SVGID_00000070108698679990261760000004015983934178434223_" gradientUnits="userSpaceOnUse" x1="141.6852" y1="415.0203" x2="142.9675" y2="415.0203">
										<stop  offset="0" style="stop-color:#FCC30B"/>
										<stop  offset="0.9997" style="stop-color:#FC860B"/>
									</linearGradient>
									<path style="fill:url(#SVGID_00000070108698679990261760000004015983934178434223_);" d="M142.853,416.702
										c-0.389,0.092-0.778,0.181-1.168,0.269c0.036-1.21,0.073-2.42,0.109-3.629c0.392-0.088,0.783-0.179,1.173-0.272
										C142.929,414.28,142.891,415.491,142.853,416.702z"/>
									
										<linearGradient id="SVGID_00000181078411112265392450000013113217383282425222_" gradientUnits="userSpaceOnUse" x1="145.0477" y1="414.1835" x2="146.3301" y2="414.1835">
										<stop  offset="0" style="stop-color:#FCC30B"/>
										<stop  offset="0.9997" style="stop-color:#FC860B"/>
									</linearGradient>
									<path style="fill:url(#SVGID_00000181078411112265392450000013113217383282425222_);" d="M146.201,415.85
										c-0.384,0.105-0.768,0.207-1.153,0.307c0.041-1.212,0.083-2.425,0.124-3.637c0.387-0.101,0.773-0.205,1.158-0.31
										C146.287,413.423,146.244,414.637,146.201,415.85z"/>
									
										<linearGradient id="SVGID_00000155844660458539964300000016328451768885353127_" gradientUnits="userSpaceOnUse" x1="148.4281" y1="413.0699" x2="149.7081" y2="413.0699">
										<stop  offset="0" style="stop-color:#FCC30B"/>
										<stop  offset="0.9997" style="stop-color:#FC860B"/>
									</linearGradient>
									<path style="fill:url(#SVGID_00000155844660458539964300000016328451768885353127_);" d="M149.565,414.721
										c-0.378,0.117-0.757,0.233-1.137,0.346c0.046-1.215,0.092-2.431,0.138-3.646c0.382-0.114,0.762-0.23,1.142-0.349
										C149.66,412.289,149.613,413.505,149.565,414.721z"/>
								</g>
							</g>
							<g>
								<path style="fill:#FBD23B;" d="M165.587,399.806v5.786c0,1.486-2.119,2.86-5.748,4.003
									c-6.031,1.9-16.242,3.146-27.817,3.146s-21.786-1.246-27.817-3.146c-3.629-1.144-5.748-2.517-5.748-4.003v-5.786H165.587z"
									/>
								<path style="fill:#FBD23B;" d="M165.587,405.591c0,1.486-2.119,2.86-5.748,4.003c-6.031,1.9-16.242,3.146-27.817,3.146
									s-21.786-1.246-27.817-3.146c-3.629-1.144-5.748-2.517-5.748-4.003c0-2.38,5.458-4.489,13.854-5.786
									c5.53-0.858,12.344-1.364,19.711-1.364s14.181,0.506,19.71,1.364C160.13,401.103,165.587,403.212,165.587,405.591z"/>
								
									<linearGradient id="SVGID_00000155856329946859823880000008932669874532912035_" gradientUnits="userSpaceOnUse" x1="155.7156" y1="435.3454" x2="118.2547" y2="379.154">
									<stop  offset="0" style="stop-color:#FCC30B"/>
									<stop  offset="0.9997" style="stop-color:#FC860B"/>
								</linearGradient>
								<path style="fill:url(#SVGID_00000155856329946859823880000008932669874532912035_);" d="M165.587,399.806
									c0,3.948-15.027,7.149-33.565,7.149c-18.537,0-33.565-3.201-33.565-7.149c0-3.949,15.027-7.149,33.565-7.149
									C150.56,392.656,165.587,395.857,165.587,399.806z"/>
								<path style="fill:none;stroke:#FB7521;stroke-width:0.7172;stroke-miterlimit:10;" d="M160.277,399.806
									c0,3.324-12.65,6.018-28.255,6.018c-15.605,0-28.255-2.694-28.255-6.018c0-3.324,12.65-6.018,28.255-6.018
									C147.627,393.787,160.277,396.482,160.277,399.806z"/>
								
									<linearGradient id="SVGID_00000115504580353581801130000015412220221586496953_" gradientUnits="userSpaceOnUse" x1="132.0224" y1="395.2095" x2="132.0224" y2="401.8481">
									<stop  offset="0" style="stop-color:#FCBC0B"/>
									<stop  offset="0.578" style="stop-color:#FBD529"/>
									<stop  offset="0.9997" style="stop-color:#FBE43B"/>
								</linearGradient>
								<path style="fill:url(#SVGID_00000115504580353581801130000015412220221586496953_);" d="M154.678,399.806
									c0,2.665-10.143,4.826-22.656,4.826s-22.656-2.161-22.656-4.826c0-2.665,10.144-4.826,22.656-4.826
									S154.678,397.14,154.678,399.806z"/>
								<g>
									<path style="fill:#FB7D30;" d="M133.399,402.466l0.005,0.475l-2.51,0.013l-0.005-0.498
										c-2.292-0.078-4.372-0.354-5.993-0.806l2.307-0.88c1.621,0.406,3.434,0.638,5.461,0.628
										c1.544-0.008,2.339-0.209,2.336-0.488c-0.003-0.31-0.776-0.373-3.191-0.542c-3.55-0.23-6.184-0.518-6.195-1.56
										c-0.01-0.898,2.059-1.535,5.218-1.665l-0.005-0.475l2.51-0.013l0.005,0.475c2.124,0.057,3.865,0.289,5.316,0.659
										l-2.09,0.932c-1.524-0.354-3.191-0.534-4.736-0.526c-1.327,0.007-2.073,0.207-2.07,0.464
										c0.003,0.317,0.801,0.419,3.264,0.572c3.719,0.23,6.112,0.549,6.122,1.522
										C139.159,401.719,136.993,402.357,133.399,402.466z"/>
								</g>
								<g>
									<path style="opacity:0.3;fill:#FFFFFF;" d="M148.678,393.601l-40.735,11.184c-3.832-0.843-6.698-1.879-8.23-3.038
										l33.078-9.085C138.568,392.687,143.975,393.024,148.678,393.601z"/>
									<path style="opacity:0.3;fill:#FFFFFF;" d="M164.077,397.681l-33.724,9.263c-5.697-0.056-11.016-0.419-15.618-1.011
										l40.844-11.219C159.462,395.531,162.416,396.542,164.077,397.681z"/>
								</g>
								<g>
									
										<linearGradient id="SVGID_00000153665148096975542580000011712491980013134519_" gradientUnits="userSpaceOnUse" x1="100.1116" y1="405.3512" x2="101.4378" y2="405.3512">
										<stop  offset="0" style="stop-color:#FCC30B"/>
										<stop  offset="0.9997" style="stop-color:#FC860B"/>
									</linearGradient>
									<path style="fill:url(#SVGID_00000153665148096975542580000011712491980013134519_);" d="M101.438,407.313
										c-0.38-0.114-0.758-0.229-1.136-0.347c-0.064-1.192-0.127-2.384-0.191-3.577c0.38,0.118,0.761,0.234,1.143,0.348
										C101.316,404.929,101.377,406.121,101.438,407.313z"/>
									
										<linearGradient id="SVGID_00000005953145680425999040000011831076451392380069_" gradientUnits="userSpaceOnUse" x1="103.5758" y1="406.4667" x2="104.8981" y2="406.4667">
										<stop  offset="0" style="stop-color:#FCC30B"/>
										<stop  offset="0.9997" style="stop-color:#FC860B"/>
									</linearGradient>
									<path style="fill:url(#SVGID_00000005953145680425999040000011831076451392380069_);" d="M104.898,408.409
										c-0.385-0.101-0.769-0.203-1.152-0.309c-0.057-1.192-0.113-2.384-0.17-3.575c0.386,0.105,0.772,0.208,1.16,0.309
										C104.79,406.025,104.844,407.217,104.898,408.409z"/>
									
										<linearGradient id="SVGID_00000036235505184775081140000014034777007932478610_" gradientUnits="userSpaceOnUse" x1="106.9414" y1="407.3033" x2="108.2579" y2="407.3033">
										<stop  offset="0" style="stop-color:#FCC30B"/>
										<stop  offset="0.9997" style="stop-color:#FC860B"/>
									</linearGradient>
									<path style="fill:url(#SVGID_00000036235505184775081140000014034777007932478610_);" d="M108.258,409.226
										c-0.39-0.088-0.779-0.178-1.167-0.27c-0.05-1.191-0.1-2.383-0.149-3.575c0.391,0.092,0.782,0.182,1.174,0.27
										C108.163,406.843,108.211,408.034,108.258,409.226z"/>
									
										<linearGradient id="SVGID_00000026147258104070306140000014260645955090067351_" gradientUnits="userSpaceOnUse" x1="110.3478" y1="408.0284" x2="111.6567" y2="408.0284">
										<stop  offset="0" style="stop-color:#FCC30B"/>
										<stop  offset="0.9997" style="stop-color:#FC860B"/>
									</linearGradient>
									<path style="fill:url(#SVGID_00000026147258104070306140000014260645955090067351_);" d="M111.657,409.931
										c-0.394-0.075-0.787-0.152-1.18-0.231c-0.043-1.192-0.086-2.383-0.129-3.575c0.395,0.079,0.791,0.157,1.187,0.232
										C111.576,407.548,111.616,408.74,111.657,409.931z"/>
									
										<linearGradient id="SVGID_00000076563285015334553650000006602036600918632121_" gradientUnits="userSpaceOnUse" x1="113.7892" y1="408.6419" x2="115.0888" y2="408.6419">
										<stop  offset="0" style="stop-color:#FCC30B"/>
										<stop  offset="0.9997" style="stop-color:#FC860B"/>
									</linearGradient>
									<path style="fill:url(#SVGID_00000076563285015334553650000006602036600918632121_);" d="M115.089,410.526
										c-0.398-0.062-0.795-0.126-1.191-0.193c-0.036-1.192-0.073-2.383-0.109-3.575c0.399,0.066,0.798,0.131,1.198,0.193
										C115.021,408.142,115.055,409.334,115.089,410.526z"/>
									
										<linearGradient id="SVGID_00000060739484071391015380000008309048229523376798_" gradientUnits="userSpaceOnUse" x1="117.26" y1="409.144" x2="118.5483" y2="409.144">
										<stop  offset="0" style="stop-color:#FCC30B"/>
										<stop  offset="0.9997" style="stop-color:#FC860B"/>
									</linearGradient>
									<path style="fill:url(#SVGID_00000060739484071391015380000008309048229523376798_);" d="M118.548,411.009
										c-0.4-0.049-0.8-0.101-1.2-0.155c-0.029-1.192-0.059-2.384-0.088-3.576c0.402,0.054,0.804,0.105,1.207,0.154
										C118.494,408.625,118.521,409.817,118.548,411.009z"/>
									
										<linearGradient id="SVGID_00000054251596606208827310000005968763806891718276_" gradientUnits="userSpaceOnUse" x1="120.7542" y1="409.5343" x2="122.0298" y2="409.5343">
										<stop  offset="0" style="stop-color:#FCC30B"/>
										<stop  offset="0.9997" style="stop-color:#FC860B"/>
									</linearGradient>
									<path style="fill:url(#SVGID_00000054251596606208827310000005968763806891718276_);" d="M122.03,411.382
										c-0.403-0.036-0.805-0.075-1.207-0.116c-0.023-1.193-0.046-2.386-0.069-3.578c0.404,0.041,0.809,0.079,1.214,0.115
										C121.988,408.996,122.009,410.189,122.03,411.382z"/>
									
										<linearGradient id="SVGID_00000053520161137532451850000003662866969938152098_" gradientUnits="userSpaceOnUse" x1="124.2665" y1="409.8132" x2="125.5275" y2="409.8132">
										<stop  offset="0" style="stop-color:#FCC30B"/>
										<stop  offset="0.9997" style="stop-color:#FC860B"/>
									</linearGradient>
									<path style="fill:url(#SVGID_00000053520161137532451850000003662866969938152098_);" d="M125.527,411.642
										c-0.404-0.024-0.808-0.05-1.212-0.078c-0.016-1.194-0.033-2.387-0.049-3.581c0.406,0.028,0.812,0.053,1.218,0.077
										C125.499,409.255,125.513,410.448,125.527,411.642z"/>
									
										<linearGradient id="SVGID_00000111913786119366120100000004516082030661901211_" gradientUnits="userSpaceOnUse" x1="127.791" y1="409.9805" x2="129.0357" y2="409.9805">
										<stop  offset="0" style="stop-color:#FCC30B"/>
										<stop  offset="0.9997" style="stop-color:#FC860B"/>
									</linearGradient>
									<path style="fill:url(#SVGID_00000111913786119366120100000004516082030661901211_);" d="M129.036,411.792
										c-0.405-0.011-0.81-0.024-1.215-0.039c-0.01-1.195-0.02-2.389-0.03-3.584c0.407,0.015,0.814,0.028,1.221,0.038
										C129.02,409.402,129.028,410.597,129.036,411.792z"/>
									
										<linearGradient id="SVGID_00000114757486543316913180000005452585832107133587_" gradientUnits="userSpaceOnUse" x1="131.3219" y1="410.0365" x2="132.5489" y2="410.0365">
										<stop  offset="0" style="stop-color:#FCC30B"/>
										<stop  offset="0.9997" style="stop-color:#FC860B"/>
									</linearGradient>
									<path style="fill:url(#SVGID_00000114757486543316913180000005452585832107133587_);" d="M132.549,411.83
										c-0.405,0.002-0.81,0.002-1.216-0.001c-0.004-1.196-0.008-2.392-0.011-3.587c0.407,0.002,0.815,0.002,1.222-0.001
										C132.546,409.438,132.547,410.634,132.549,411.83z"/>
									
										<linearGradient id="SVGID_00000183936880779809610920000006855687479254631090_" gradientUnits="userSpaceOnUse" x1="134.8463" y1="409.9796" x2="136.0747" y2="409.9796">
										<stop  offset="0" style="stop-color:#FCC30B"/>
										<stop  offset="0.9997" style="stop-color:#FC860B"/>
									</linearGradient>
									<path style="fill:url(#SVGID_00000183936880779809610920000006855687479254631090_);" d="M136.061,411.757
										c-0.405,0.015-0.81,0.027-1.215,0.038c0.003-1.197,0.005-2.394,0.007-3.592c0.407-0.011,0.814-0.024,1.221-0.039
										C136.07,409.362,136.066,410.56,136.061,411.757z"/>
									
										<linearGradient id="SVGID_00000025407049110197085800000017304810964050914701_" gradientUnits="userSpaceOnUse" x1="138.3551" y1="409.8122" x2="139.5986" y2="409.8122">
										<stop  offset="0" style="stop-color:#FCC30B"/>
										<stop  offset="0.9997" style="stop-color:#FC860B"/>
									</linearGradient>
									<path style="fill:url(#SVGID_00000025407049110197085800000017304810964050914701_);" d="M139.567,411.573
										c-0.404,0.028-0.808,0.053-1.212,0.076c0.008-1.199,0.017-2.398,0.025-3.597c0.406-0.024,0.812-0.05,1.218-0.078
										C139.588,409.174,139.577,410.374,139.567,411.573z"/>
									
										<linearGradient id="SVGID_00000124859540818803834620000008943802606911144579_" gradientUnits="userSpaceOnUse" x1="141.8537" y1="409.5331" x2="143.1098" y2="409.5331">
										<stop  offset="0" style="stop-color:#FCC30B"/>
										<stop  offset="0.9997" style="stop-color:#FC860B"/>
									</linearGradient>
									<path style="fill:url(#SVGID_00000124859540818803834620000008943802606911144579_);" d="M143.061,411.278
										c-0.402,0.04-0.804,0.079-1.207,0.115c0.014-1.201,0.029-2.401,0.043-3.602c0.405-0.037,0.809-0.076,1.213-0.117
										C143.093,408.875,143.077,410.076,143.061,411.278z"/>
									
										<linearGradient id="SVGID_00000029037300056178487130000010788996229435581573_" gradientUnits="userSpaceOnUse" x1="145.3363" y1="409.1426" x2="146.6027" y2="409.1426">
										<stop  offset="0" style="stop-color:#FCC30B"/>
										<stop  offset="0.9997" style="stop-color:#FC860B"/>
									</linearGradient>
									<path style="fill:url(#SVGID_00000029037300056178487130000010788996229435581573_);" d="M146.537,410.871
										c-0.4,0.053-0.8,0.104-1.2,0.153c0.02-1.203,0.04-2.405,0.06-3.608c0.402-0.05,0.804-0.101,1.206-0.155
										C146.581,408.464,146.559,409.668,146.537,410.871z"/>
									
										<linearGradient id="SVGID_00000026868186760861573860000018130113559528179107_" gradientUnits="userSpaceOnUse" x1="148.7975" y1="408.6404" x2="150.0715" y2="408.6404">
										<stop  offset="0" style="stop-color:#FCC30B"/>
										<stop  offset="0.9997" style="stop-color:#FC860B"/>
									</linearGradient>
									<path style="fill:url(#SVGID_00000026868186760861573860000018130113559528179107_);" d="M149.989,410.353
										c-0.397,0.066-0.794,0.13-1.191,0.192c0.026-1.205,0.051-2.41,0.077-3.614c0.4-0.062,0.799-0.127,1.197-0.194
										C150.044,407.942,150.016,409.147,149.989,410.353z"/>
									
										<linearGradient id="SVGID_00000124860994199010713130000018202942834222799008_" gradientUnits="userSpaceOnUse" x1="152.2313" y1="408.0268" x2="153.5108" y2="408.0268">
										<stop  offset="0" style="stop-color:#FCC30B"/>
										<stop  offset="0.9997" style="stop-color:#FC860B"/>
									</linearGradient>
									<path style="fill:url(#SVGID_00000124860994199010713130000018202942834222799008_);" d="M153.412,409.724
										c-0.393,0.079-0.786,0.156-1.181,0.23c0.031-1.207,0.062-2.414,0.093-3.622c0.396-0.075,0.791-0.153,1.186-0.233
										C153.478,407.308,153.445,408.516,153.412,409.724z"/>
									
										<linearGradient id="SVGID_00000134937455854683342200000004437112662459298969_" gradientUnits="userSpaceOnUse" x1="155.6323" y1="407.3015" x2="156.9146" y2="407.3015">
										<stop  offset="0" style="stop-color:#FCC30B"/>
										<stop  offset="0.9997" style="stop-color:#FC860B"/>
									</linearGradient>
									<path style="fill:url(#SVGID_00000134937455854683342200000004437112662459298969_);" d="M156.8,408.983
										c-0.389,0.092-0.778,0.181-1.168,0.269c0.036-1.21,0.073-2.419,0.109-3.629c0.392-0.088,0.783-0.179,1.173-0.272
										C156.876,406.562,156.839,407.772,156.8,408.983z"/>
									
										<linearGradient id="SVGID_00000127738495159439456530000002320577301968784291_" gradientUnits="userSpaceOnUse" x1="158.9949" y1="406.4648" x2="160.2772" y2="406.4648">
										<stop  offset="0" style="stop-color:#FCC30B"/>
										<stop  offset="0.9997" style="stop-color:#FC860B"/>
									</linearGradient>
									<path style="fill:url(#SVGID_00000127738495159439456530000002320577301968784291_);" d="M160.148,408.131
										c-0.384,0.105-0.768,0.207-1.153,0.307c0.041-1.212,0.083-2.425,0.124-3.637c0.387-0.101,0.773-0.205,1.158-0.31
										C160.234,405.704,160.191,406.918,160.148,408.131z"/>
									
										<linearGradient id="SVGID_00000170255752944422477070000018126437873482065827_" gradientUnits="userSpaceOnUse" x1="162.3752" y1="405.3513" x2="163.6552" y2="405.3513">
										<stop  offset="0" style="stop-color:#FCC30B"/>
										<stop  offset="0.9997" style="stop-color:#FC860B"/>
									</linearGradient>
									<path style="fill:url(#SVGID_00000170255752944422477070000018126437873482065827_);" d="M163.512,407.003
										c-0.378,0.117-0.757,0.233-1.137,0.346c0.046-1.215,0.092-2.431,0.139-3.646c0.382-0.114,0.762-0.23,1.141-0.349
										C163.607,404.57,163.56,405.786,163.512,407.003z"/>
								</g>
							</g>
						</g>
					</g>
					<g>
						
							<rect x="98.316" y="309.386" transform="matrix(-0.7063 0.7079 -0.7079 -0.7063 434.2062 498.0162)" style="fill:#007538;" width="30.946" height="59.396"/>
						<g>
							<path style="fill:#00AB51;" d="M90.855,332.716l29.356,29.287c2.021-2.026,5.301-2.029,7.327-0.009l9.194-9.215
								c-2.025-2.021-2.029-5.301-0.008-7.327l-29.356-29.287c-2.021,2.026-5.301,2.029-7.327,0.008l-9.194,9.215
								C92.872,327.41,92.876,330.691,90.855,332.716z"/>
						</g>
						<path style="fill:#007538;" d="M110.616,342.266c-4.161-4.151-6.113-8.941-4.361-10.697c1.753-1.757,6.547,0.184,10.708,4.335
							c4.161,4.151,6.113,8.941,4.36,10.698C119.57,348.358,114.776,346.417,110.616,342.266z"/>
					</g>
				</g>
			</g>
		</g>
	</g>
</g>
</svg>
