<?xml version="1.0" encoding="utf-8"?>
<!-- Generator: Adobe Illustrator 27.5.0, SVG Export Plug-In . SVG Version: 6.00 Build 0)  -->
<svg version="1.1" xmlns="http://www.w3.org/2000/svg" xmlns:xlink="http://www.w3.org/1999/xlink" x="0px" y="0px"
	 viewBox="0 0 3000 2000" style="enable-background:new 0 0 3000 2000;" xml:space="preserve">
<g id="BACKGROUND">
	<rect style="fill:#FFFFFF;" width="3000" height="2000"/>
</g>
<g id="OBJECTS">
	<g>
		<g>
			<path style="fill:#F6F5F5;" d="M2321.49,767.046c-191.332-588.146-1219.411-613.718-1298.365,46.174
				c0,0-60.948,12.069-114.714,3.843c-293.146-44.854-806.096,516.531-412.418,945.511h2198.462
				C2932.325,1352.891,2761.465,933.702,2321.49,767.046z"/>
			<g>
				<g>
					<g>
						<path style="fill:#DADADA;" d="M1793.205,1135.328l-3.79-3.686c245.394-252.284,255.148-390.265,269.908-599.122
							c5.23-73.957,11.142-157.63,28.138-258.61c-116.219,54.019-210.416,128.829-280.06,222.429
							c-56.442,75.859-96.987,164.175-120.497,262.495c-40.071,167.555-16.4,307.93-16.158,309.328l-5.211,0.91
							c-0.246-1.407-24.097-142.692,16.177-311.275c23.662-99.057,64.5-188.052,121.373-264.518
							c71.089-95.582,167.559-171.711,286.725-226.275l4.552-2.087l-0.848,4.936c-17.598,102.946-23.61,188-28.915,263.04
							C2049.76,742.912,2039.954,881.661,1793.205,1135.328z"/>
						<g>
							<path style="fill:#DADADA;" d="M1746.957,1081.141l-5.125-1.317c0.976-3.785,98.697-381.011,221.642-590.411l4.567,2.676
								C1845.464,700.857,1747.928,1077.361,1746.957,1081.141z"/>
							<path style="fill:#DADADA;" d="M1882.47,666.688l-5.287-0.189c0.028-0.756,2.236-76.475-37.323-149.355l4.652-2.525
								C1884.782,588.816,1882.499,665.919,1882.47,666.688z"/>
							<path style="fill:#DADADA;" d="M1826.066,820.065l-3.724-3.752c56.229-55.838,129.696-73.088,130.43-73.256l1.175,5.159
								C1953.228,748.379,1881.191,765.331,1826.066,820.065z"/>
						</g>
					</g>
					<g>
						<path style="fill:#DADADA;" d="M1979.874,1296.985l-0.521-5.268c95.679-9.479,173.296-73.6,237.28-196.024
							c56.684-108.465,95.622-247.047,133.277-381.068c24.415-86.89,47.508-169.068,74.462-240.233
							c-275.365,68.815-389.5,287.099-390.628,289.309l-4.714-2.402c1.146-2.245,117.64-225.224,398.989-293.253l4.893-1.182
							l-1.805,4.702c-27.641,72.013-51.179,155.793-76.101,244.492c-37.731,134.279-76.745,273.132-133.689,382.084
							C2156.443,1222.272,2077.467,1287.312,1979.874,1296.985z"/>
						<path style="fill:#DADADA;" d="M1956.43,1167.033l-4.832-2.141c1.606-3.629,162.448-363.828,297.568-468.564l3.24,4.183
							c-55.386,42.93-124.102,137.157-198.729,272.499C1997.207,1075.423,1956.833,1166.133,1956.43,1167.033z"/>
						<path style="fill:#DADADA;" d="M2134.174,836.656l-5.201-0.971c0.076-0.4,7.537-41.189,14.183-139.739l5.277,0.355
							C2141.763,795.233,2134.25,836.254,2134.174,836.656z"/>
						<path style="fill:#DADADA;" d="M2043.99,990.08l-3.003-4.358c0.729-0.502,74.211-50.613,170.672-72.605l1.175,5.159
							C2117.353,940.045,2044.71,989.583,2043.99,990.08z"/>
					</g>
				</g>
				<g>
					<g>
						<path style="fill:#DADADA;" d="M762.802,1642.729c-237.635-244.305-247.08-377.927-261.374-580.195
							c-5.107-72.264-10.895-154.168-27.844-253.298l-0.843-4.936l4.552,2.087c259.961,119.031,357.224,322.75,393.044,472.688
							c38.787,162.363,15.817,298.44,15.58,299.794l-5.211-0.909c0.234-1.345,23.024-136.513-15.559-297.848
							c-35.36-147.844-130.992-348.425-385.509-466.816c16.348,97.164,22.037,177.685,27.068,248.864
							c14.214,201.107,23.602,333.963,259.892,576.884L762.802,1642.729z"/>
						<g>
							<path style="fill:#DADADA;" d="M807.318,1590.503c-0.933-3.638-94.864-366.203-212.891-567.221l4.562-2.681
								c118.405,201.666,212.516,564.937,213.454,568.585L807.318,1590.503z"/>
							<path style="fill:#DADADA;" d="M676.817,1191.368c-0.026-0.744-2.226-75.016,36.563-146.489l4.652,2.52
								c-38.077,70.161-35.954,143.05-35.928,143.779L676.817,1191.368z"/>
							<path style="fill:#DADADA;" d="M731.16,1339.135c-53.062-52.69-122.406-69.005-123.102-69.166l1.177-5.154
								c0.708,0.161,71.482,16.774,125.653,70.568L731.16,1339.135z"/>
						</g>
					</g>
					<g>
						<path style="fill:#DADADA;" d="M599.468,1735.523c-204.16-18.991-285.891-245.313-358.001-445
							c-24.375-67.494-47.397-131.245-74.102-186.114l-2.359-4.841l5.277,1.094c137.912,28.697,232.976,88.867,288.44,134.286
							c60.168,49.27,88.109,92.42,88.384,92.851l-4.458,2.852c-1.078-1.686-110.243-168.09-368.181-223.694
							c25.834,53.998,48.268,116.12,71.975,181.771c71.575,198.203,152.699,422.849,353.513,441.527L599.468,1735.523z"/>
						<path style="fill:#DADADA;" d="M619.806,1637.196c-1.542-2.757-155.752-276.616-282.357-356.938l2.833-4.472
							c127.732,81.042,282.592,356.057,284.143,358.823L619.806,1637.196z"/>
						<path style="fill:#DADADA;" d="M449.473,1384.479c-0.073-0.308-7.612-31.549-15.047-106.669l5.263-0.521
							c7.392,74.661,14.848,105.627,14.924,105.93L449.473,1384.479z"/>
						<path style="fill:#DADADA;" d="M535.906,1502.204c-0.682-0.389-69.301-38.825-158.884-56.466l1.023-5.192
							c90.457,17.816,159.776,56.665,160.466,57.053L535.906,1502.204z"/>
					</g>
				</g>
				<g>
					<g>
						<path style="fill:#DADADA;" d="M2497.578,1758.967l-1.25-5.135c224.788-54.893,267.17-296.355,308.155-529.864
							c14.386-81.961,29.256-166.659,51.989-239.97c-223.76,42.87-350.509,197.37-417.563,319.861
							c-73.226,133.779-93.055,259.34-93.244,260.591l-5.23-0.796c0.194-1.26,20.123-127.607,93.756-262.187
							c68.029-124.338,197.095-281.391,425.644-323.482l4.33-0.798l-1.331,4.197c-23.377,73.931-38.508,160.136-53.14,243.499
							C2768.415,1460.068,2725.729,1703.255,2497.578,1758.967z"/>
						<path style="fill:#DADADA;" d="M2478.341,1626.604l-5.097-1.412c0.82-2.965,83.699-297.634,218.492-413.995l3.458,4.007
							C2561.613,1330.514,2479.16,1623.658,2478.341,1626.604z"/>
						<path style="fill:#DADADA;" d="M2573.607,1379.533l-5.182-1.071c0.123-0.597,12.226-60.639,7.977-148.786l5.287-0.256
							C2585.971,1318.288,2573.731,1378.932,2573.607,1379.533z"/>
						<path style="fill:#DADADA;" d="M2502.329,1507.789l-3.25-4.178c0.734-0.568,74.703-57.688,176.896-93.983l1.771,4.983
							C2576.35,1450.627,2503.059,1507.221,2502.329,1507.789z"/>
					</g>
				</g>
			</g>
			<g>
				<path style="fill:#DADADA;" d="M1978.945,677.105c-9.479,0-17.191-7.714-17.191-17.195s7.712-17.195,17.191-17.195
					c9.479,0,17.191,7.714,17.191,17.195S1988.424,677.105,1978.945,677.105z M1978.945,648.005
					c-6.561,0-11.904,5.341-11.904,11.904c0,6.563,5.343,11.904,11.904,11.904c6.561,0,11.904-5.341,11.904-11.904
					C1990.849,653.346,1985.506,648.005,1978.945,648.005z"/>
				<path style="fill:#DADADA;" d="M553.213,942.961c-9.481,0-17.195-7.714-17.195-17.195s7.714-17.195,17.195-17.195
					s17.193,7.714,17.193,17.195S562.694,942.961,553.213,942.961z M553.213,913.861c-6.563,0-11.904,5.341-11.904,11.904
					c0,6.563,5.341,11.904,11.904,11.904c6.563,0,11.902-5.341,11.902-11.904C565.115,919.202,559.776,913.861,553.213,913.861z"/>
				<path style="fill:#DADADA;" d="M2148.234,1326.09c-9.479,0-17.191-7.712-17.191-17.191c0-9.479,7.712-17.191,17.191-17.191
					c9.479,0,17.191,7.712,17.191,17.191C2165.424,1318.378,2157.712,1326.09,2148.234,1326.09z M2148.234,1296.995
					c-6.561,0-11.904,5.343-11.904,11.904c0,6.561,5.343,11.904,11.904,11.904c6.561,0,11.904-5.343,11.904-11.904
					C2160.138,1302.338,2154.794,1296.995,2148.234,1296.995z"/>
				<path style="fill:#DADADA;" d="M2733.251,1142.68c-9.479,0-17.191-7.712-17.191-17.191c0-9.484,7.712-17.195,17.191-17.195
					s17.191,7.712,17.191,17.195C2750.442,1134.968,2742.73,1142.68,2733.251,1142.68z M2733.251,1113.58
					c-6.561,0-11.904,5.343-11.904,11.909c0,6.561,5.344,11.904,11.904,11.904s11.904-5.344,11.904-11.904
					C2745.156,1118.924,2739.812,1113.58,2733.251,1113.58z"/>
				<circle style="fill:#DADADA;" cx="2091.363" cy="1081.84" r="11.904"/>
				<circle style="fill:#DADADA;" cx="2639.348" cy="1520.084" r="11.904"/>
				
					<ellipse transform="matrix(0.0014 -1 1 0.0014 1018.954 2504.2275)" style="fill:#DADADA;" cx="1763.365" cy="741.915" rx="11.904" ry="11.903"/>
				<circle style="fill:#DADADA;" cx="449.17" cy="1558.883" r="11.904"/>
			</g>
			<path style="fill:#DADADA;" d="M788.145,748.909c-1.52,0-3.065-0.218-4.595-0.675l-32.906-9.829
				c-4.109-1.229-7.492-3.982-9.522-7.752c-2.025-3.761-2.463-8.086-1.229-12.174l11.213-37.233
				c-13.915-7.385-26.679-16.66-38.003-27.61l-32.082,21.655c-7.326,4.943-17.314,3.025-22.269-4.28l-19.242-28.351
				c-2.402-3.536-3.278-7.795-2.468-11.99c0.81-4.202,3.212-7.835,6.765-10.234l31.705-21.397
				c-6.72-15.822-10.926-32.574-12.522-49.855l-37.617-4.306c-4.263-0.488-8.079-2.605-10.741-5.962
				c-2.655-3.344-3.849-7.52-3.359-11.76l3.932-34.024c1.009-8.766,8.979-15.081,17.766-14.072l37.134,4.256
				c4.979-15.59,12.205-30.305,21.511-43.811l-25.642-26.587c-2.97-3.079-4.559-7.129-4.477-11.4
				c0.085-4.277,1.833-8.264,4.927-11.229l24.768-23.737c6.376-6.116,16.549-5.919,22.674,0.441l25.414,26.355
				c14.424-9.242,30.087-16.168,46.62-20.618l-2.364-36.324c-0.573-8.804,6.142-16.435,14.964-17.008l34.277-2.231
				c8.932-0.587,16.471,6.12,17.046,14.919l2.366,36.328c16.966,2.271,33.392,7.11,48.884,14.401l21.783-29.429
				c5.249-7.096,15.305-8.612,22.423-3.38l27.641,20.327c3.449,2.537,5.699,6.262,6.338,10.49c0.637,4.228-0.412,8.449-2.956,11.888
				l-21.97,29.687c10.971,12.193,20.042,25.853,26.999,40.656l36.265-9.036c8.591-2.122,17.307,3.089,19.446,11.646l8.307,33.226
				c1.035,4.14,0.396,8.437-1.805,12.098c-2.208,3.674-5.715,6.265-9.877,7.302l-36.741,9.15c0.673,17.347-1.329,34.5-5.954,51.059
				l34.213,17.105c3.835,1.919,6.689,5.211,8.036,9.27c1.345,4.055,1.028,8.387-0.891,12.205l-15.395,30.609
				c-3.967,7.882-13.621,11.08-21.525,7.132l-34.633-17.309c-9.792,12.316-21.246,23.167-34.102,32.302l15.947,35.466
				c1.75,3.896,1.878,8.238,0.358,12.229c-1.523,4.003-4.519,7.172-8.437,8.925l-31.34,14.012
				c-8.072,3.598-17.575-0.002-21.191-8.048l-16.028-35.649c-8.361,1.85-16.919,3.067-25.469,3.624
				c-8.553,0.561-17.195,0.462-25.736-0.289l-11.262,37.42C801.435,744.426,795.044,748.909,788.145,748.909z M713.735,646.828
				l1.542,1.53c11.838,11.748,25.365,21.575,40.203,29.204l1.956,1.007l-12.48,41.435c-0.824,2.736-0.531,5.625,0.822,8.141
				c1.36,2.525,3.626,4.368,6.381,5.192l32.906,9.829c5.692,1.693,11.686-1.528,13.385-7.188l12.515-41.584l2.17,0.22
				c8.951,0.9,18.048,1.059,27.034,0.481c8.989-0.587,17.984-1.926,26.734-3.982l2.122-0.5l17.814,39.614
				c2.421,5.388,8.792,7.797,14.204,5.388l31.34-14.015c2.627-1.172,4.633-3.295,5.654-5.976c1.016-2.667,0.931-5.571-0.242-8.176
				l-17.745-39.469l1.812-1.253c13.74-9.498,25.879-20.992,36.075-34.168l1.329-1.717l38.51,19.247
				c5.31,2.655,11.776,0.507,14.431-4.777l15.395-30.608c1.284-2.551,1.497-5.45,0.597-8.16c-0.902-2.717-2.811-4.922-5.381-6.206
				l-38.157-19.078l0.623-2.122c5.095-17.331,7.2-35.367,6.26-53.602l-0.114-2.177l40.957-10.201c2.792-0.694,5.142-2.43,6.62-4.891
				c1.471-2.449,1.902-5.322,1.21-8.091l-8.309-33.226c-1.433-5.729-7.267-9.23-13.034-7.795l-40.528,10.097l-0.909-2.006
				c-7.136-15.725-16.715-30.149-28.467-42.875l-1.488-1.608l24.566-33.195c1.703-2.302,2.406-5.125,1.978-7.951
				c-0.426-2.828-1.933-5.322-4.242-7.018l-27.641-20.327c-4.773-3.513-11.516-2.492-15.033,2.262l-24.391,32.951l-1.978-0.962
				c-16.201-7.885-33.484-12.975-51.369-15.13l-2.179-0.263l-2.648-40.696c-0.386-5.893-5.519-10.36-11.423-9.988l-34.277,2.231
				c-5.914,0.386-10.414,5.495-10.033,11.388l2.65,40.694l-2.129,0.542c-17.456,4.453-33.936,11.743-48.986,21.665l-1.836,1.21
				l-28.456-29.509c-4.107-4.259-10.931-4.394-15.204-0.294l-24.768,23.737c-2.07,1.985-3.242,4.654-3.297,7.513
				c-0.057,2.859,1.007,5.566,2.994,7.627l28.673,29.73l-1.267,1.788c-10.009,14.131-17.641,29.675-22.681,46.201l-0.642,2.106
				l-41.497-4.754c-5.9-0.727-11.236,3.546-11.911,9.42l-3.932,34.024c-0.327,2.835,0.471,5.628,2.248,7.864
				c1.786,2.25,4.341,3.667,7.2,3.993l41.928,4.801l0.173,2.17c1.45,18.202,5.876,35.815,13.157,52.347l0.891,2.023l-35.355,23.863
				c-2.38,1.606-3.989,4.038-4.531,6.85c-0.54,2.804,0.045,5.651,1.651,8.018l19.242,28.351c3.326,4.893,10.024,6.184,14.931,2.863
				L713.735,646.828z M829.656,631.07c-50.225,0-92.621-39.022-95.921-89.696c-3.437-52.792,36.843-98.548,89.789-101.994
				c25.649-1.674,50.405,6.717,69.718,23.614c19.318,16.904,30.874,40.298,32.536,65.874c1.668,25.578-6.757,50.272-23.721,69.538
				c-16.959,19.261-40.421,30.789-66.065,32.456l0,0C833.867,631.002,831.754,631.07,829.656,631.07z M829.926,444.461
				c-2.013,0-4.031,0.066-6.056,0.197c-50.038,3.259-88.102,46.492-84.857,96.371c3.25,49.886,46.639,87.806,96.634,84.557l0,0
				c24.24-1.577,46.414-12.473,62.442-30.675c16.026-18.202,23.986-41.534,22.413-65.696c-1.573-24.164-12.492-46.267-30.743-62.238
				C873.033,452.341,851.982,444.461,829.926,444.461z"/>
		</g>
		<g>
			<path style="fill:#86A7FF;" d="M1638.741,1759.928H851.784c-27.232,0-49.308-22.076-49.308-49.308V560.355
				c0-27.232,22.076-49.308,49.308-49.308h786.957c27.232,0,49.308,22.076,49.308,49.308V1710.62
				C1688.049,1737.852,1665.973,1759.928,1638.741,1759.928z"/>
			<rect x="1089.199" y="566" style="fill:#D3DFFF;" width="312.127" height="52.397"/>
			<rect x="890.813" y="698.267" style="fill:#DADADA;" width="708.898" height="157.218"/>
			<rect x="921.835" y="719.771" style="fill:#FFFFFF;" width="646.855" height="114.209"/>
			<g>
				<path style="fill:#1F3C88;" d="M1414.827,991.899h-48.164c-14.456,0-26.176-11.719-26.176-26.176v-11.137
					c0-14.456,11.719-26.176,26.176-26.176h48.164c14.456,0,26.176,11.719,26.176,26.176v11.137
					C1441.003,980.18,1429.284,991.899,1414.827,991.899z"/>
				<path style="fill:#1F3C88;" d="M1573.536,991.899h-48.164c-14.456,0-26.176-11.719-26.176-26.176v-11.137
					c0-14.456,11.719-26.176,26.176-26.176h48.164c14.456,0,26.176,11.719,26.176,26.176v11.137
					C1599.711,980.18,1587.992,991.899,1573.536,991.899z"/>
			</g>
			<g>
				<path style="fill:#1F3C88;" d="M1587.227,1151.501h-96.739c-6.884,0-12.465-5.581-12.465-12.465v-57.957
					c0-6.884,5.581-12.465,12.465-12.465h96.739c6.884,0,12.465,5.581,12.465,12.465v57.957
					C1599.692,1145.92,1594.111,1151.501,1587.227,1151.501z"/>
				<path style="fill:#1F3C88;" d="M1393.109,1151.501h-96.739c-6.884,0-12.465-5.581-12.465-12.465v-57.957
					c0-6.884,5.581-12.465,12.465-12.465h96.739c6.884,0,12.465,5.581,12.465,12.465v57.957
					C1405.575,1145.92,1399.994,1151.501,1393.109,1151.501z"/>
				<path style="fill:#1F3C88;" d="M1198.992,1151.501h-96.739c-6.884,0-12.465-5.581-12.465-12.465v-57.957
					c0-6.884,5.581-12.465,12.465-12.465h96.739c6.884,0,12.465,5.581,12.465,12.465v57.957
					C1211.457,1145.92,1205.876,1151.501,1198.992,1151.501z"/>
				<path style="fill:#1F3C88;" d="M1004.875,1151.501h-96.739c-6.884,0-12.465-5.581-12.465-12.465v-57.957
					c0-6.884,5.581-12.465,12.465-12.465h96.739c6.884,0,12.465,5.581,12.465,12.465v57.957
					C1017.34,1145.92,1011.759,1151.501,1004.875,1151.501z"/>
			</g>
			<g>
				<path style="fill:#1F3C88;" d="M1587.227,1301.403h-96.739c-6.884,0-12.465-5.581-12.465-12.465v-57.957
					c0-6.884,5.581-12.465,12.465-12.465h96.739c6.884,0,12.465,5.581,12.465,12.465v57.957
					C1599.692,1295.823,1594.111,1301.403,1587.227,1301.403z"/>
				<path style="fill:#D3DFFF;" d="M1393.109,1301.403h-96.739c-6.884,0-12.465-5.581-12.465-12.465v-57.957
					c0-6.884,5.581-12.465,12.465-12.465h96.739c6.884,0,12.465,5.581,12.465,12.465v57.957
					C1405.575,1295.823,1399.994,1301.403,1393.109,1301.403z"/>
				<path style="fill:#D3DFFF;" d="M1198.992,1301.403h-96.739c-6.884,0-12.465-5.581-12.465-12.465v-57.957
					c0-6.884,5.581-12.465,12.465-12.465h96.739c6.884,0,12.465,5.581,12.465,12.465v57.957
					C1211.457,1295.823,1205.876,1301.403,1198.992,1301.403z"/>
				<path style="fill:#D3DFFF;" d="M1004.875,1301.403h-96.739c-6.884,0-12.465-5.581-12.465-12.465v-57.957
					c0-6.884,5.581-12.465,12.465-12.465h96.739c6.884,0,12.465,5.581,12.465,12.465v57.957
					C1017.34,1295.823,1011.759,1301.403,1004.875,1301.403z"/>
			</g>
			<g>
				<path style="fill:#1F3C88;" d="M1587.227,1451.306h-96.739c-6.884,0-12.465-5.581-12.465-12.465v-57.957
					c0-6.884,5.581-12.465,12.465-12.465h96.739c6.884,0,12.465,5.581,12.465,12.465v57.957
					C1599.692,1445.725,1594.111,1451.306,1587.227,1451.306z"/>
				<path style="fill:#D3DFFF;" d="M1393.109,1451.306h-96.739c-6.884,0-12.465-5.581-12.465-12.465v-57.957
					c0-6.884,5.581-12.465,12.465-12.465h96.739c6.884,0,12.465,5.581,12.465,12.465v57.957
					C1405.575,1445.725,1399.994,1451.306,1393.109,1451.306z"/>
				<path style="fill:#D3DFFF;" d="M1198.992,1451.306h-96.739c-6.884,0-12.465-5.581-12.465-12.465v-57.957
					c0-6.884,5.581-12.465,12.465-12.465h96.739c6.884,0,12.465,5.581,12.465,12.465v57.957
					C1211.457,1445.725,1205.876,1451.306,1198.992,1451.306z"/>
				<path style="fill:#D3DFFF;" d="M1004.875,1451.306h-96.739c-6.884,0-12.465-5.581-12.465-12.465v-57.957
					c0-6.884,5.581-12.465,12.465-12.465h96.739c6.884,0,12.465,5.581,12.465,12.465v57.957
					C1017.34,1445.725,1011.759,1451.306,1004.875,1451.306z"/>
			</g>
			<g>
				<path style="fill:#FBC343;" d="M1587.227,1606.499h-96.739c-6.884,0-12.465-5.581-12.465-12.465v-57.957
					c0-6.884,5.581-12.465,12.465-12.465h96.739c6.884,0,12.465,5.581,12.465,12.465v57.957
					C1599.692,1600.918,1594.111,1606.499,1587.227,1606.499z"/>
				<path style="fill:#D3DFFF;" d="M1393.109,1606.499h-96.739c-6.884,0-12.465-5.581-12.465-12.465v-57.957
					c0-6.884,5.581-12.465,12.465-12.465h96.739c6.884,0,12.465,5.581,12.465,12.465v57.957
					C1405.575,1600.918,1399.994,1606.499,1393.109,1606.499z"/>
				<path style="fill:#D3DFFF;" d="M1198.992,1606.499h-96.739c-6.884,0-12.465-5.581-12.465-12.465v-57.957
					c0-6.884,5.581-12.465,12.465-12.465h96.739c6.884,0,12.465,5.581,12.465,12.465v57.957
					C1211.457,1600.918,1205.876,1606.499,1198.992,1606.499z"/>
				<path style="fill:#D3DFFF;" d="M1004.875,1606.499h-96.739c-6.884,0-12.465-5.581-12.465-12.465v-57.957
					c0-6.884,5.581-12.465,12.465-12.465h96.739c6.884,0,12.465,5.581,12.465,12.465v57.957
					C1017.34,1600.918,1011.759,1606.499,1004.875,1606.499z"/>
			</g>
			<g>
				<path style="fill:#3A6BEA;" d="M1427.843,802.771c1.866,0.196,4.036,0,6.982-0.296c5.012-0.685,9.736-2.751,13.371-6.194
					c4.228-3.836,7.278-9.441,8.455-17.012h-0.288c-3.547,4.324-8.655,6.882-15.045,6.882c-11.506,0-18.88-8.652-18.88-19.57
					c0-12.095,8.751-22.717,21.827-22.717s21.138,10.622,21.138,26.945c0,14.065-4.716,23.898-11.009,29.996
					c-4.916,4.816-11.706,7.767-18.584,8.556c-3.147,0.492-5.901,0.589-7.967,0.492V802.771z M1430.99,765.993
					c0,7.963,4.82,13.569,12.29,13.569c5.805,0,10.329-2.851,12.587-6.686c0.496-0.785,0.785-1.77,0.785-3.147
					c0-10.914-4.027-19.274-13.075-19.274C1436.203,750.455,1430.99,756.945,1430.99,765.993z"/>
				<path style="fill:#3A6BEA;" d="M1478.318,802.771c1.866,0.196,4.035,0,6.982-0.296c5.012-0.685,9.736-2.751,13.371-6.194
					c4.228-3.836,7.278-9.441,8.455-17.012h-0.288c-3.547,4.324-8.655,6.882-15.045,6.882c-11.506,0-18.88-8.652-18.88-19.57
					c0-12.095,8.751-22.717,21.827-22.717c13.075,0,21.138,10.622,21.138,26.945c0,14.065-4.716,23.898-11.009,29.996
					c-4.916,4.816-11.706,7.767-18.584,8.556c-3.147,0.492-5.901,0.589-7.967,0.492V802.771z M1481.465,765.993
					c0,7.963,4.82,13.569,12.29,13.569c5.805,0,10.329-2.851,12.587-6.686c0.496-0.785,0.785-1.77,0.785-3.147
					c0-10.914-4.027-19.274-13.075-19.274C1486.677,750.455,1481.465,756.945,1481.465,765.993z"/>
			</g>
		</g>
		<g>
			<g>
				<rect x="1920.748" y="1408.151" style="fill:#FBC343;" width="483.162" height="354.422"/>
				<rect x="2275.196" y="1488.386" style="fill:#E49B31;" width="128.73" height="5.286"/>
				<rect x="2179.972" y="1682.378" style="fill:#E49B31;" width="223.954" height="5.287"/>
				<path style="fill:#E49B31;" d="M2161.615,1536.574c0,40.791-6.137,81.793-18.622,121.632
					c-18.992,60.525-75.016,101.687-138.394,101.687h-83.851v-351.724h220.076
					C2154.578,1449.542,2161.615,1492.926,2161.615,1536.574z"/>
			</g>
			<g>
				<path style="fill:#FBC343;" d="M1719.717,1700.778v37.776c0,13.28-10.739,24.02-24.018,24.02h-398.306
					c-13.279,0-24.018-10.74-24.018-24.02v-37.776c0-13.28,10.739-24.019,24.018-24.019h398.306
					C1708.978,1676.759,1719.717,1687.499,1719.717,1700.778z"/>
				<path style="fill:#FBC343;" d="M1670.359,1614.911v37.828c0,13.279-10.792,24.02-24.018,24.02h-398.306
					c-13.279,0-24.018-10.74-24.018-24.02v-37.828c0-13.227,10.74-24.02,24.018-24.02h398.306
					C1659.566,1590.891,1670.359,1601.684,1670.359,1614.911z"/>
				<path style="fill:#E49B31;" d="M1719.717,1700.778v37.776c0,13.28-10.739,24.02-24.018,24.02h-285.623
					c-19.733-24.337-31.794-55.711-39.042-85.814c-8.359-34.495-10.528-67.245-11.004-85.868h286.31
					c13.226,0,24.018,10.793,24.018,24.02v37.828c0,13.279-10.792,24.02-24.018,24.02h49.358
					C1708.978,1676.759,1719.717,1687.499,1719.717,1700.778z"/>
			</g>
			<g>
				<path style="fill:#FBC343;" d="M1929.053,997.013l-32.165,98.777l-2.381,7.301l-14.919,45.87l-0.106,0.318l-48.089-1.058
					l-184.525-4.18l-13.49-38.622l-2.275-6.455l-35.709-101.951C1706.174,1035.371,1797.484,951.514,1929.053,997.013z"/>
				<path style="fill:#E49B31;" d="M1894.508,1103.092l-14.919,45.87l-48.194-0.741l-184.525-4.18l-13.49-38.622
					C1696.81,1104.308,1805.948,1102.827,1894.508,1103.092z"/>
				<path style="fill:#FBC343;" d="M2100.67,1660.887c-9.47,30.263-28.25,55.658-52.532,73.54
					c-24.336,17.882-54.172,28.146-85.862,28.146h-417.933c-60.415,0-113.424-40.368-129.506-98.671
					c-9.258-33.702-14.231-67.879-15.024-101.898c-0.053-3.28-0.106-6.56-0.106-9.84c0-3.877,0.054-7.751,0.161-11.621
					c3.41-123.296,63.656-238.133,160.353-314.695l99.979-79.161l228.805,5.291l125.771,120.355
					c17.691,16.929,33.453,35.851,46.099,56.819c15.155,25.13,27.429,51.654,36.726,79.053
					C2125.059,1488.94,2126.857,1577.4,2100.67,1660.887z"/>
				<g>
					<path style="fill:#FFFFFF;" d="M1728.518,1652.054v-44.215c-31.206-1.403-61.465-9.783-79.172-20.022l13.992-54.492
						c19.565,10.694,47.018,20.477,77.314,20.477c26.542,0,44.705-10.239,44.705-28.858c0-17.709-14.902-28.895-49.369-40.537
						c-49.824-16.761-83.836-40.044-83.836-85.207c0-40.992,28.893-73.111,78.717-82.894v-44.253h45.615v40.992
						c31.206,1.403,52.175,7.925,67.531,15.358l-13.499,52.634c-12.096-5.119-33.519-15.851-67.076-15.851
						c-30.258,0-40.041,13.045-40.041,26.089c0,15.358,16.305,25.141,55.891,40.044c55.398,19.567,77.769,45.163,77.769,87.103
						c0,41.447-29.348,76.827-82.888,86.155v47.476H1728.518z"/>
				</g>
				<path style="fill:#ED7545;" d="M1926.866,1189.4h-323.658c-13.388,0-24.342-10.954-24.342-24.342v-10.357
					c0-13.388,10.954-24.342,24.342-24.342h323.658c13.388,0,24.342,10.954,24.342,24.342v10.357
					C1951.208,1178.446,1940.255,1189.4,1926.866,1189.4z"/>
				<path style="opacity:0.4;fill:#E49B31;" d="M2100.67,1660.887c-9.47,30.263-28.25,55.658-52.532,73.54
					c-24.336,17.882-54.172,28.146-85.862,28.146h-417.933c-60.415,0-113.424-40.368-129.506-98.671
					c-9.258-33.702-14.231-67.879-15.024-101.898c69.144,65.922,150.614,152.107,341.065,154.752
					c236.496,3.285,338.419-107.559,356.724-308.552C2125.059,1488.94,2126.857,1577.4,2100.67,1660.887z"/>
			</g>
		</g>
		<g>
			<g>
				<g>
					<polygon style="fill:#102048;" points="477.384,1689.386 435.062,1673.514 336.751,1759.928 453.094,1759.928 					"/>
					<polygon style="fill:#F9B384;" points="477.384,1689.386 570.846,1689.386 560.265,1756.401 453.094,1759.928 					"/>
					<path style="fill:#1F3C88;" d="M852.533,1313.73l-3.439,23.438l-2.063,14.126l-14.813,101.528l-5.661,38.781l-5.026,34.601
						l-13.173,90.153l-9.152,62.536c-6.877,47.034-47.189,81.9-94.749,81.9H497.661l0.264-2.645l6.719-68.779l0.952-9.682
						l144.16-27.776l19.362-140.626c-9.522-40.897-7.195-80.259-3.068-107.877c3.491-23.544,8.358-38.516,8.358-38.516l64.33-18.464
						L852.533,1313.73z"/>
					<path style="fill:#102048;" d="M808.359,1616.357l-9.152,62.536c-6.877,47.034-47.189,81.9-94.749,81.9h-10.581
						C788.627,1743.836,770.111,1622.812,808.359,1616.357z"/>
					
						<rect x="396.899" y="1740.97" transform="matrix(0.528 -0.8493 0.8493 0.528 -1284.3625 1176.3851)" style="fill:#FFFFFF;" width="38.413" height="5.293"/>
				</g>
				<path style="fill:#102048;" d="M832.219,1452.822l-10.687,73.382c-29.784-8.518-69.056-51.09-69.056-51.09L832.219,1452.822z"/>
				<g>
					<path style="fill:#102048;" d="M1051.335,1640.006c0,0-50.258,25.792-140.193,9.259l74.725-49.6L1051.335,1640.006z"/>
					<polygon style="fill:#F9B384;" points="1023.674,1675.559 943.315,1677.358 942.839,1660.005 941.569,1612.442 
						1012.988,1617.733 1016.373,1636.091 					"/>
					<polygon style="fill:#E28B6D;" points="1016.373,1636.091 942.839,1660.005 941.569,1612.442 1012.988,1617.733 					"/>
					<polygon style="fill:#102048;" points="1114.818,1760.589 1026.206,1689.165 1023.69,1675.581 943.3,1677.358 
						945.529,1760.589 					"/>
					
						<rect x="1021.199" y="1718.703" transform="matrix(0.8482 -0.5297 0.5297 0.8482 -753.8973 812.116)" style="fill:#FFFFFF;" width="37.433" height="5.294"/>
					<path style="fill:#1F3C88;" d="M674.402,1364.891l287.554-45.666c13.449-2.136,27.228-0.329,39.671,5.202h0
						c24.73,10.992,40.98,35.176,41.814,62.227l7.894,253.353c0,0-82-17.195-140.193,9.259l-5.29-173.27
						c-35.158,16.008-96.064,19.399-157.784,13.227L674.402,1364.891z"/>
					<path style="fill:#3A6BEA;" d="M1010.82,1632.071h-5.291c0-43.841,1.059-80.232,1.992-112.339
						c2.271-78.185,3.522-121.255-16.395-139.478c-16.118-14.751-48.325-14.292-95.061-8.763
						c-50.083,5.836-70.054-47.484-70.248-48.024l4.974-1.805c0.744,2.046,18.735,50.099,64.654,44.571
						c49.464-5.841,81.568-6.068,99.253,10.118c21.705,19.863,20.504,61.193,18.11,143.538
						C1011.876,1551.958,1010.82,1588.305,1010.82,1632.071z"/>
					<path style="fill:#3A6BEA;" d="M911.242,1617.348l-1.878-4.945c0.67-0.251,67.747-25.215,141.773-6.708l-1.284,5.135
						C977.506,1592.725,911.898,1617.097,911.242,1617.348z"/>
				</g>
				<path style="fill:#3A6BEA;" d="M527.036,1761.554c-8.238-16.485,4.512-84.751,5.059-87.65l5.197,0.985
					c-3.631,19.251-11.705,71.932-5.523,84.296L527.036,1761.554z"/>
				<path style="fill:#102048;" d="M823.913,1343.729c0,0-20.314,43.225-66.128,72.323c-15.554,9.841-30.842,14.338-44.544,14.391
					c-20.685,0.053-37.878-9.999-47.189-27.036c3.491-23.544,8.358-38.516,8.358-38.516l64.33-18.464l64.912-2.063L823.913,1343.729
					z"/>
			</g>
			<g>
				<polygon style="fill:#ED7545;" points="772.272,1083.216 772.272,1144.447 832.229,1144.447 832.229,1091.487 				"/>
				<polygon style="fill:#F9B384;" points="832.229,1053.623 772.272,1053.623 772.272,1083.216 832.229,1091.487 				"/>
				<path style="fill:#102048;" d="M789.949,1062c1.323,0,14.462,20.615,42.279,29.486l-0.398-32.131L789.949,1062z"/>
				<path style="fill:#F9B384;" d="M839.282,980.436c0,0,33.064,89.06-9.699,94.791c-42.763,5.732-49.376-13.668-49.376-13.668
					l-13.226-47.175l29.538-39.68L839.282,980.436z"/>
				
					<ellipse transform="matrix(0.0185 -0.9998 0.9998 0.0185 -188.461 1854.4225)" style="fill:#F9B384;" cx="850.304" cy="1023.202" rx="9.259" ry="9.258"/>
				<path style="fill:#102048;" d="M794.315,1022.761c0,0,2.204-47.616,44.967-42.325c0,0-28.779-36.964-66.7-22.63
					c-19.257,7.279-32.14,25.668-34.026,46.17c-2.436,26.496,13.038,56.702,34.64,61.993c0,0,7.054-16.313,18.914-37.035
					L794.315,1022.761z"/>
				<path style="fill:#F9B384;" d="M804.541,1020.534c3.575,7.602,1.203,16.243-5.297,19.299c-6.5,3.057-14.667-0.628-18.241-8.23
					c-3.574-7.602-1.203-16.243,5.297-19.299C792.8,1009.247,800.966,1012.931,804.541,1020.534z"/>
				
					<ellipse transform="matrix(0.0143 -0.9999 0.9999 0.0143 -215.3895 1838.498)" style="opacity:0.4;fill:#EB5D60;" cx="824.777" cy="1028.493" rx="12.124" ry="12.124"/>
				<path style="fill:#102048;" d="M795.459,1031.136c-0.727,0-1.317-0.592-1.322-1.317c-0.002-0.313-0.154-7.693-8.337-8.835
					c-0.725-0.104-1.229-0.772-1.127-1.497c0.099-0.72,0.774-1.189,1.492-1.128c10.495,1.473,10.616,11.355,10.616,11.454
					c0,0.729-0.587,1.317-1.317,1.322C795.461,1031.136,795.461,1031.136,795.459,1031.136z"/>
			</g>
			<g>
				<path style="fill:#BA5C36;" d="M995.787,995.867c0,0,46.247,3.527,71.419,33.067l-57.268,14.109L995.787,995.867z"/>
				<path style="fill:#F9B384;" d="M1077.741,970.525c0.212,4.233-11.427,25.343-19.997,40.315
					c-5.026,8.624-8.941,15.185-8.941,15.185l-30.842,8.994l-22.008-33.172l-1.058-1.64c0,0,0.317-1.429,0.899-3.968v-0.053
					c0.053-0.053,0.053-0.159,0.106-0.317c3.703-15.713,16.823-69.255,24.388-71.054c6.666-1.535,2.751,27.776,2.751,27.776
					s16.453-47.669,26.187-45.711c7.777,1.534-7.459,47.246-7.459,47.246s5.449-5.714,10.951-3.915
					c5.872,1.957,6.613,7.46,6.613,7.46s3.915-2.751,7.83-0.423c3.915,2.38,3.544,9.788,3.544,9.788
					S1077.318,963.911,1077.741,970.525z"/>
				<path style="fill:#ED7545;" d="M758.26,1122.949l-20.95,81.9l-32.482,126.976c-22.06,9.788-45.337,13.385-63.801,10.317
					c-21.426-3.545-36.397-16.031-35.392-38.093C608.281,1244.529,758.26,1122.949,758.26,1122.949z"/>
				<path style="fill:#BA5C36;" d="M754.24,1146.21l-16.929,58.638l-32.482,126.976c-22.06,9.788-45.337,13.385-63.801,10.317
					C688.111,1207.053,754.24,1146.21,754.24,1146.21z"/>
				<path style="fill:#ED7545;" d="M885.174,1331.507c-43.645,2.963-181.192,116.712-214.256,43.331
					c0,0,4.602-273.739,145.906-268.66c25.023,0.899,46.978,17.565,54.543,41.426c3.386,10.793,6.771,24.866,9.417,42.96
					c2.698,18.359,4.708,40.897,5.396,68.355C886.761,1280.082,886.497,1304.154,885.174,1331.507z"/>
				<path style="fill:#BA5C36;" d="M886.18,1258.919c-21.849-14.126-44.65-56.716-44.65-56.716l39.254-11.64
					C883.482,1208.922,885.492,1231.46,886.18,1258.919z"/>
				<path style="fill:#E28B6D;" d="M1057.744,1010.839c-5.026,8.624-8.941,15.185-8.941,15.185l-30.842,8.994l-22.008-33.172
					l-0.159-5.608v-0.37h0.106L1057.744,1010.839z"/>
				<path style="fill:#ED7545;" d="M816.834,1106.179c0,0,67.856,4.76,108.856,12.696l70.096-123.008
					c21.411,17.132,45.207,28.181,71.419,33.067l-61.349,144.554c-13.53,27.454-41.062,45.24-71.649,46.285l-105.065,3.592
					L816.834,1106.179z"/>
				<path style="fill:#BA5C36;" d="M925.693,1120.861c-0.121,0-0.242-0.01-0.365-0.033c-1.291-0.242-129.424-23.737-151.257-4.434
					c-0.824,0.72-2.075,0.649-2.802-0.175c-0.725-0.819-0.647-2.075,0.173-2.8c23.271-20.573,149.26,2.511,154.611,3.505
					c1.078,0.199,1.788,1.236,1.589,2.312C927.464,1120.193,926.63,1120.861,925.693,1120.861z"/>
			</g>
		</g>
		<g>
			<g>
				<polygon style="fill:#102048;" points="2329.866,1647.061 2338.684,1759.928 2191.878,1759.928 2265.942,1708.785 
					2264.619,1638.243 				"/>
				<polygon style="fill:#102048;" points="2546.327,1599.004 2586.004,1695.558 2485.489,1780.209 2500.037,1684.977 
					2480.198,1621.489 				"/>
				<path style="fill:#1F3C88;" d="M2368.676,1054.488c-1.323,3.703-2.539,8.465-3.703,14.073
					c-1.958,9.788-3.65,22.274-5.079,36.982c-4.655,48.039-6.613,119.411-7.142,195.226c-1.111,170.73,5.344,363.945,5.344,363.945
					l-26.875-0.423l-66.129-1.005l-23.383-0.37c-35.445-270.459-25.34-498.857-19.997-578.376c0.158-2.751,0.37-5.291,0.476-7.672
					c1.111-14.602,1.852-22.38,1.852-22.38H2368.676z"/>
				<path style="fill:#1F3C88;" d="M2571.453,1624.134l-13.437,3.333l-70.467,17.618l-43.063,10.793
					c0,0-50.999-189.247-91.734-355.11c-19.574-79.995-36.82-154.541-44.756-199.776c-2.751-15.978-4.391-28.305-4.602-35.924
					l61.579,3.492l77.767,4.444c0,0,1.905,11.164,5.608,31.215C2463.161,1184.162,2506.594,1405.524,2571.453,1624.134z"/>
				<path style="fill:#102048;" d="M2448.348,1104.22c-31.319,2.592-61.156,2.698-88.454,1.323
					c-18.569-0.952-35.974-2.592-51.898-4.55c-39.36-4.92-69.726-12.063-86.284-16.454c-9.046-2.434-13.967-4.021-13.967-4.021
					l14.442-3.651l89.089-22.38h57.399c-1.323,3.703-2.539,8.465-3.703,14.073l77.767,4.444
					C2442.74,1073.005,2444.645,1084.168,2448.348,1104.22z"/>
				<path style="fill:#3A6BEA;" d="M2355.504,1321.419c-4.277-17.939-24.49-102.894-27.124-117.28l-40.886-15.329l1.857-4.955
					l44.036,16.513v1.833c0.303,3.922,16.471,72.723,27.262,117.986L2355.504,1321.419z"/>
				<path style="fill:#3A6BEA;" d="M2251.691,1398.846c-19.237,0-31.459-4.775-32.141-5.05l1.961-4.912
					c0.208,0.09,21.791,8.446,52.297,2.511l1.014,5.192C2266.352,1398.235,2258.569,1398.846,2251.691,1398.846z"/>
				<path style="fill:#3A6BEA;" d="M2404.85,1395.132c-12.316,0-22.653-1.919-23.458-2.07l0.985-5.201
					c0.365,0.071,36.139,6.693,52.657-4.855l3.032,4.33C2429.264,1393.498,2416.214,1395.132,2404.85,1395.132z"/>
				
					<rect x="2273.655" y="1703.669" transform="matrix(0.6082 -0.7938 0.7938 0.6082 -470.8091 2479.6479)" style="fill:#FFFFFF;" width="5.291" height="26.102"/>
				
					<rect x="2511.5" y="1675.482" transform="matrix(0.3763 -0.9265 0.9265 0.3763 1.6438 3383.8589)" style="fill:#FFFFFF;" width="5.287" height="30.452"/>
			</g>
			<g>
				<path style="fill:#ED7545;" d="M2291.071,765.282c0,0-90.816,11.463-113.741,113.75l27.333,121.685l-12.344,81.124
					c0,0,123.44,12.345,250.407-8.818l-38.575-206.777L2291.071,765.282z"/>
				<path style="fill:#6E3620;" d="M2347.501,1024.525c0,0-27.333-20.06,8.376-108.018l23.806,86.635L2347.501,1024.525z"/>
				<path style="fill:#102048;" d="M2240.994,913.97l-6.601-12.469l101.614-53.804c2.839-1.503,6.36-0.42,7.863,2.419l1.158,2.187
					c1.503,2.839,0.42,6.359-2.419,7.862L2240.994,913.97z"/>
				<path style="fill:#F9B384;" d="M2370.422,995.867l-2.698-1.482l-35.074-18.94l-58.775-31.797
					c-1.058-7.09-0.264-13.121,3.968-17.248l-2.91-1.164c-4.761-2.01-8.253-6.296-9.205-11.428l-0.106-0.635
					c-1.534-5.132-0.794-9.893-0.317-12.539l1.375-1.799c3.438-4.497,4.973-6.772,9.417-10.317l-7.512,0.423
					c0,0-18.516,5.079-9.893-6.825c5.925-8.253,19.204-15.237,26.769-18.729c3.174-1.481,7.036-0.846,9.469,1.693
					c25.446,26.4,70.202,58.039,70.202,58.039l0.476,6.454l4.338,59.414L2370.422,995.867z"/>
				<g>
					<path style="fill:#E28B6D;" d="M2301.065,894.771l-16.011-7.821c-1.667-0.822-3.534-1.082-5.362-0.763l-17.053,2.965
						l-0.455-2.605l17.053-2.965c2.387-0.417,4.803-0.071,6.982,0.99l16.011,7.821L2301.065,894.771z"/>
					<path style="fill:#E28B6D;" d="M2298.091,909.806l-19.204-7.357c-0.853-0.327-1.753-0.493-2.672-0.493h-10.933v-2.643h10.933
						c1.241,0,2.458,0.223,3.619,0.666l19.204,7.359L2298.091,909.806z"/>
					<path style="fill:#E28B6D;" d="M2295.447,924.797l-17.437-6.587c-1.364-0.516-2.861-0.711-4.334-0.54l-7.144,0.813
						l-0.303-2.629l7.148-0.812c1.866-0.213,3.799,0.028,5.571,0.696l17.437,6.587L2295.447,924.797z"/>
				</g>
				<polygon style="fill:#E28B6D;" points="2369.946,988.989 2367.724,994.386 2332.649,975.445 2355.874,916.507 2365.608,929.575 
									"/>
				<path style="fill:#BA5C36;" d="M2347.501,1024.525c0,0,52.465,49.821,95.225,48.498l-12.347-58.638L2347.501,1024.525z"/>
				<path style="fill:#ED7545;" d="M2291.071,765.282c0,0,6.461-0.67,17.229-0.301c105.898,3.622,187.019,94.745,181.851,200.587
					c-2.136,43.753-13.503,87.186-50.071,88.056l-92.579-29.099c8.731-32.746,15.25-66.705,8.376-108.018l42.984,20.501
					L2291.071,765.282z"/>
				<polygon style="fill:#D3DFFF;" points="2321.275,1020.469 2191.875,1023.643 2188.331,1012.691 2175.316,972.694 
					2137.649,856.987 2267.05,853.812 				"/>
				<path style="opacity:0.3;fill:#1F3C88;" d="M2202.773,958.832c0,0-0.212,35.765-14.442,53.859l-13.014-39.997L2202.773,958.832z
					"/>
				<g>
					<path style="fill:#F9B384;" d="M2140.014,956.038c4.075-13.162,11.504-25.308,19.669-36.268
						c2.599-3.488,8.253-12.061,13.68-10.759c11.021,2.645,0,22.044,0,22.044s10.581-15.872,14.548-7.936
						c3.968,7.936-1.763,16.754-1.763,16.754s16.752-11.022,10.581,11.022c0,0,13.666-1.763,5.291,13.225
						c-5.978,10.699-9.85,22.625-17.34,32.456c-7.545,9.903-21.724,15.455-33.498,9.813c-13.848-6.636-15.622-24.347-13.911-37.833
						C2137.811,964.29,2138.751,960.115,2140.014,956.038z"/>
					<path style="fill:#E28B6D;" d="M2163.771,952.551c-0.18,0-0.36-0.038-0.535-0.114c-0.668-0.296-0.971-1.078-0.673-1.746
						l12.563-28.437c0.294-0.668,1.075-0.969,1.743-0.675c0.668,0.296,0.971,1.078,0.673,1.746l-12.563,28.437
						C2164.761,952.255,2164.278,952.551,2163.771,952.551z"/>
					<path style="fill:#E28B6D;" d="M2176.665,963.134c-0.189,0-0.379-0.04-0.559-0.125c-0.663-0.31-0.948-1.097-0.64-1.76
						l11.904-25.459c0.318-0.663,1.108-0.943,1.758-0.639c0.663,0.31,0.947,1.097,0.639,1.76l-11.904,25.459
						C2177.641,962.849,2177.163,963.134,2176.665,963.134z"/>
					<path style="fill:#E28B6D;" d="M2186.585,971.729c-0.208,0-0.417-0.05-0.616-0.154c-0.644-0.339-0.895-1.139-0.554-1.786
						l10.251-19.51c0.346-0.644,1.137-0.888,1.786-0.554c0.644,0.339,0.895,1.139,0.554,1.786l-10.251,19.51
						C2187.518,971.471,2187.059,971.729,2186.585,971.729z"/>
				</g>
				<polygon style="fill:#102048;" points="2229.348,865.364 2183.058,865.364 2175.122,849.492 2221.412,849.492 				"/>
				<path style="fill:#BA5C36;" d="M2289.815,816.955c-13.728,0-22.752-6.791-22.885-6.895c-0.867-0.67-1.023-1.911-0.36-2.778
					c0.673-0.865,1.909-1.03,2.781-0.365c0.758,0.573,18.711,13.932,42.738-0.566c0.929-0.571,2.156-0.261,2.724,0.673
					c0.564,0.938,0.26,2.158-0.677,2.724C2305.168,815.162,2296.868,816.955,2289.815,816.955z"/>
				<path style="fill:#BA5C36;" d="M2347.503,1026.508c-0.185,0-0.374-0.028-0.563-0.081c-1.047-0.313-1.649-1.416-1.341-2.468
					c19.024-64.414,8.47-106.534,8.361-106.953l-0.772-2.963l81.927,13.733c1.08,0.18,1.81,1.203,1.63,2.283
					c-0.18,1.087-1.255,1.821-2.283,1.63l-76.039-12.745c2.032,10.774,7.451,50.376-9.015,106.143
					C2349.151,1025.949,2348.36,1026.508,2347.503,1026.508z"/>
				<path style="fill:#BA5C36;" d="M2407.455,926.426c-0.038,0-0.081,0-0.118-0.002c-1.094-0.066-1.928-1.007-1.862-2.101
					c0.024-0.426,2.217-43.105-27.437-86.946c-0.611-0.907-0.374-2.141,0.531-2.755c0.909-0.609,2.141-0.379,2.757,0.533
					c30.44,45.009,28.138,88.971,28.11,89.41C2409.369,925.616,2408.497,926.426,2407.455,926.426z"/>
			</g>
			<g>
				<path style="fill:#F9B384;" d="M2327.438,716.586v51.058c0,16.475-12.839,29.823-28.687,29.823
					c-15.847,0-28.687-13.348-28.687-29.823v-51.058H2327.438z"/>
				<path style="fill:#102048;" d="M2300.326,723.398c0,0-2.975,31.546-30.26,40.674v-44.815L2300.326,723.398z"/>
				<path style="fill:#F9B384;" d="M2248.412,658.386c0,0-8.901,71.617,19.016,80.114c27.916,8.497,53.405-16.185,53.405-16.185
					l-5.26-59.074l-41.268-24.277L2248.412,658.386z"/>
				<path style="fill:#102048;" d="M2407.242,797.573l-55.072,3.651c-6.97-7.675-10.911-18.455-13.49-30.633
					c-2.325,12.53-0.487,22.942,5.66,31.162l-14.918,1.005c-13.226-19.787-24.335-63.594-11.216-101.052l1.534-8.835
					c0,0-9.417-28.517-23.066-29.734c0,0-46.819,31.585-67.663-3.651c-15.553-26.242-2.434-60.737,34.969-35.289
					c0,0,89.882-42.167,89.67,44.283c-0.053,15.502,5.766,30.739,17.246,41.109c0.952,0.952,2.01,1.852,3.121,2.698
					C2394.175,728.265,2415.918,760.115,2407.242,797.573z"/>
				
					<ellipse transform="matrix(0.3066 -0.9518 0.9518 0.3066 949.4493 2689.876)" style="fill:#F9B384;" cx="2320.97" cy="693.266" rx="15.698" ry="13.431"/>
				<path style="fill:#102048;" d="M2319.284,698.266c-0.729,0-1.322-0.592-1.322-1.322c0-5.706,4.51-10.753,9.848-11.021
					c0.024,0,0.047,0,0.066,0c0.701,0,1.284,0.549,1.322,1.255c0.038,0.729-0.526,1.35-1.255,1.388
					c-3.543,0.178-7.338,3.586-7.338,8.378C2320.606,697.673,2320.014,698.266,2319.284,698.266z"/>
				<path style="fill:#102048;" d="M2258.224,685.701c0,1.826-1.48,3.307-3.306,3.307c-1.826,0-3.306-1.48-3.306-3.307
					c0-1.826,1.48-3.307,3.306-3.307C2256.743,682.395,2258.224,683.875,2258.224,685.701z"/>
				<path style="fill:#102048;" d="M2278.173,684.048c0,1.826-1.48,3.307-3.306,3.307s-3.306-1.481-3.306-3.307
					c0-1.826,1.48-3.307,3.306-3.307S2278.173,682.222,2278.173,684.048z"/>
				<path style="fill:#102048;" d="M2262.965,707.856c-0.332,0-0.668-0.123-0.924-0.377c-2.691-2.629-3.79-5.123-3.269-7.416
					c0.526-2.326,2.591-3.681,3.823-4.296l-0.294-6.535c-0.033-0.729,0.535-1.348,1.265-1.381c0.72,0.002,1.345,0.535,1.378,1.262
					l0.374,8.427l-0.933,0.324c-0.729,0.254-2.695,1.248-3.036,2.79c-0.374,1.663,1.175,3.6,2.539,4.934
					c0.521,0.509,0.531,1.348,0.024,1.869C2263.652,707.723,2263.311,707.856,2262.965,707.856z"/>
				<path style="fill:#102048;" d="M2265.637,717.382c-1.104,0-1.795-0.102-1.89-0.118c-0.72-0.114-1.208-0.789-1.094-1.509
					c0.114-0.722,0.848-1.196,1.506-1.104c0.071,0.012,6.769,0.969,12.653-4.154c0.535-0.483,1.383-0.429,1.862,0.128
					c0.483,0.552,0.426,1.386-0.128,1.866C2273.671,716.742,2268.385,717.382,2265.637,717.382z"/>
				<circle style="opacity:0.4;fill:#EB5D60;" cx="2291.316" cy="699.176" r="8.68"/>
			</g>
		</g>
		<rect x="97.863" y="1757.286" style="fill:#102048;" width="2823.137" height="5.287"/>
	</g>
</g>
</svg>
