<?xml version="1.0" encoding="UTF-8"?>
<svg xmlns="http://www.w3.org/2000/svg" id="Layer_1" data-name="Layer 1" viewBox="0 0 24 24">
  <path d="m24,5.879v18.121H4v-3h17v-13h-5V3H7v1.5c-.77-.321-1.614-.5-2.5-.5-.169,0-.334.013-.5.025v-1.025c0-.026,0-.052.002-.077.041-1.619,1.37-2.923,2.998-2.923h11.121l5.879,5.879Zm-15,12.121h10v-3h-10v3Zm10-5v-3h-8.025c.013.166.025.331.025.5,0,.886-.179,1.73-.5,2.5h8.5ZM2,18.99v-4.75c-1.205-.808-2-2.183-2-3.74,0-2.481,2.019-4.5,4.5-4.5s4.5,2.019,4.5,4.5c0,1.557-.795,2.932-2,3.74v4.75l-2.5-2.5-2.5,2.5Zm1-8.49c0,.827.673,1.5,1.5,1.5s1.5-.673,1.5-1.5-.673-1.5-1.5-1.5-1.5.673-1.5,1.5Z"/>
</svg>
